<?xml version="1.0" encoding="UTF-8"?>
<svg width="126px" height="31px" viewBox="0 0 126 31" version="1.1" xmlns="http://www.w3.org/2000/svg" xmlns:xlink="http://www.w3.org/1999/xlink">
    <!-- Generator: Sketch 45.1 (43504) - http://www.bohemiancoding.com/sketch -->
    <title>Group 4 Copy 8</title>
    <desc>Created with Sketch.</desc>
    <defs>
        <linearGradient x1="206.317595%" y1="50%" x2="0%" y2="50%" id="linearGradient-1">
            <stop stop-color="#336699" offset="0%"></stop>
            <stop stop-color="#9966CC" offset="100%"></stop>
        </linearGradient>
        <linearGradient x1="50.001%" y1="0%" x2="50.001%" y2="99.998%" id="linearGradient-2">
            <stop stop-color="#FF9966" offset="0%"></stop>
            <stop stop-color="#FD5C63" offset="100%"></stop>
        </linearGradient>
        <linearGradient x1="49.999%" y1="100%" x2="49.999%" y2="0%" id="linearGradient-3">
            <stop stop-color="#336699" offset="0%"></stop>
            <stop stop-color="#9966CC" offset="100%"></stop>
        </linearGradient>
        <linearGradient x1="50%" y1="100%" x2="50%" y2="0%" id="linearGradient-4">
            <stop stop-color="#00CAA2" offset="0%"></stop>
            <stop stop-color="#4DC47D" offset="100%"></stop>
        </linearGradient>
    </defs>
    <g id="Page-1" stroke="none" stroke-width="1" fill="none" fill-rule="evenodd">
        <g id="Group-4-Copy-8">
            <g id="Group-4" transform="translate(23.000000, 5.000000)">
                <path d="M7.30056518,14.6033605 L10.4021125,14.6033605 L10.4021125,17.5076375 L0.560664319,17.5076375 L0.560664319,14.6033605 L3.96043732,14.6033605 L3.96043732,3.52494908 C3.65823376,3.93873255 3.07769354,4.38569006 2.21879922,4.86583503 C1.35990491,5.34598 0.620312561,5.58604888 0,5.58604888 L0,2.61150713 C0.326061731,2.61150713 0.683928994,2.53538773 1.07361253,2.38314664 C1.46329606,2.23090555 1.81917517,2.04743828 2.14126054,1.83273931 C2.46334591,1.61804034 2.76554493,1.39553747 3.04786667,1.16522403 C3.33018842,0.934910593 3.54888508,0.743636199 3.70396322,0.591395112 C3.85904136,0.439154025 3.94453187,0.347420387 3.96043732,0.316191446 L7.30056518,0.316191446 L7.30056518,14.6033605 Z M23.9868897,17.5076375 L11.377907,17.5076375 C11.377907,16.0086483 11.5210539,14.7731719 11.807352,13.8011711 C12.0936501,12.8291703 12.5549012,12.0094229 13.1911192,11.3419043 C13.8273373,10.6743857 14.7140528,10.0673822 15.8512925,9.52087576 C16.0262525,9.43499618 16.2867003,9.31203407 16.6326438,9.15198574 C16.9785874,8.99193742 17.2449997,8.86897531 17.4318887,8.78309572 C17.6187778,8.69721614 17.8613322,8.57425402 18.1595594,8.4142057 C18.4577866,8.25415738 18.6884122,8.11167747 18.8514431,7.98676171 C19.0144739,7.86184595 19.199372,7.7037518 19.4061429,7.51247454 C19.6129137,7.32119728 19.7679895,7.13382644 19.871375,6.95035642 C19.9747604,6.76688639 20.0642272,6.55023886 20.1397781,6.30040733 C20.215329,6.0505758 20.2531039,5.78903735 20.2531039,5.51578411 C20.2531039,4.78971124 20.0284427,4.21588805 19.5791138,3.79429735 C19.1297848,3.37270665 18.5074934,3.16191446 17.7122209,3.16191446 C16.869232,3.16191446 16.0878885,3.36099597 15.3681669,3.75916497 C14.6484452,4.15733397 14.0261538,4.63747173 13.501274,5.19959267 L11.4494811,3.09164969 C11.7039683,2.80278199 12.0200844,2.51001506 12.3978389,2.21334012 C12.7755933,1.91666518 13.2428089,1.61413936 13.7994997,1.30575356 C14.3561904,0.997367772 15.0122804,0.745588213 15.7677893,0.550407332 C16.5232982,0.355226451 17.3066299,0.257637475 18.1178078,0.257637475 C19.9707928,0.257637475 21.4082263,0.73387168 22.4301515,1.68635438 C23.4520767,2.63883708 23.9630316,3.89968665 23.9630316,5.46894094 C23.9630316,6.03886911 23.8835055,6.5638978 23.724451,7.04404277 C23.5653965,7.52418774 23.3665814,7.93210966 23.1279996,8.26782077 C22.8894179,8.60353189 22.5693255,8.93338263 22.1677129,9.25738289 C21.7661002,9.58138315 21.3843752,9.84877695 21.0225262,10.0595723 C20.6606772,10.2703677 20.2133431,10.5084848 19.6805105,10.7739308 C18.3762636,11.4063168 17.4358679,12.0055131 16.8592954,12.5715377 C16.2827228,13.1375622 15.9944408,13.8148297 15.9944408,14.6033605 L23.9868897,14.6033605 L23.9868897,17.5076375 Z M32.9432039,14.6033605 L36.0447512,14.6033605 L36.0447512,17.5076375 L26.2033031,17.5076375 L26.2033031,14.6033605 L29.6030761,14.6033605 L29.6030761,3.52494908 C29.3008725,3.93873255 28.7203323,4.38569006 27.861438,4.86583503 C27.0025437,5.34598 26.2629513,5.58604888 25.6426387,5.58604888 L25.6426387,2.61150713 C25.9687005,2.61150713 26.3265677,2.53538773 26.7162513,2.38314664 C27.1059348,2.23090555 27.4618139,2.04743828 27.7838993,1.83273931 C28.1059847,1.61804034 28.4081837,1.39553747 28.6905054,1.16522403 C28.9728272,0.934910593 29.1915238,0.743636199 29.346602,0.591395112 C29.5016801,0.439154025 29.5871706,0.347420387 29.6030761,0.316191446 L32.9432039,0.316191446 L32.9432039,14.6033605 Z M41.1241314,17.5076375 L37.7601455,17.5076375 L37.7601455,0.480142566 L45.1084268,0.480142566 C45.8798411,0.480142566 46.613469,0.644092047 47.3093324,0.971995927 C48.0051959,1.29989981 48.5936887,1.7292913 49.0748286,2.2601833 C49.5559685,2.7910753 49.9357054,3.39612695 50.2140508,4.07535642 C50.4923962,4.75458588 50.6315668,5.44161228 50.6315668,6.13645621 C50.6315668,7.11236062 50.4088938,8.029697 49.9635412,8.88849287 C49.5181886,9.74728875 48.8760157,10.4479776 48.0370032,10.9905804 C47.1979906,11.5331833 46.2615713,11.8044807 45.227717,11.8044807 L41.1241314,11.8044807 L41.1241314,17.5076375 Z M41.1241314,3.38441955 L41.1241314,8.90020367 L45.0368526,8.90020367 C45.6651179,8.90020367 46.1840254,8.64647233 46.5935908,8.13900204 C47.0031561,7.63153175 47.2079357,6.96402315 47.2079357,6.13645621 C47.2079357,5.29327481 46.9792983,4.62381443 46.5220166,4.12805499 C46.0647349,3.63229555 45.5219695,3.38441955 44.8937043,3.38441955 L41.1241314,3.38441955 Z M57.5838043,17.7418534 C56.7646736,17.7418534 55.9972472,17.6266984 55.2815019,17.3963849 C54.5657566,17.1660715 53.9414771,16.8479314 53.4086445,16.4419552 C52.8758119,16.035979 52.4145608,15.5616965 52.0248772,15.0190937 C51.6351937,14.4764908 51.3429354,13.8831499 51.1480937,13.239053 C50.9532519,12.594956 50.8558325,11.9293992 50.8558325,11.2423625 C50.8558325,10.3679522 51.0148846,9.5364941 51.3329936,8.74796334 C51.6511026,7.95943258 52.0924722,7.26655085 52.6571157,6.66929735 C53.2217592,6.07204386 53.9315293,5.59776143 54.7864472,5.24643585 C55.6413652,4.89511026 56.5738082,4.7194501 57.5838043,4.7194501 C58.9278149,4.7194501 60.1147413,5.02197593 61.1446192,5.62703666 C62.1744971,6.23209739 62.9538525,7.02451988 63.4827087,8.0043279 C64.0115649,8.98413592 64.2759891,10.06347 64.2759891,11.2423625 C64.2759891,12.1089656 64.1209133,12.9345684 63.810757,13.7191955 C63.5006007,14.5038227 63.0651955,15.1947526 62.5045284,15.7920061 C61.9438613,16.3892596 61.2380675,16.863542 60.3871259,17.2148676 C59.5361843,17.5661932 58.6017531,17.7418534 57.5838043,17.7418534 Z M54.2317474,11.2423625 C54.2317474,12.3353755 54.5518398,13.2370976 55.1920342,13.947556 C55.8322286,14.6580144 56.6294773,15.0132383 57.5838043,15.0132383 C58.5301786,15.0132383 59.323451,14.6541109 59.9636454,13.9358452 C60.6038398,13.2175796 60.9239322,12.3119539 60.9239322,11.2189409 C60.9239322,10.1337352 60.6038398,9.23591665 59.9636454,8.52545825 C59.323451,7.81499984 58.5301786,7.45977597 57.5838043,7.45977597 C56.63743,7.45977597 55.8421694,7.8189034 55.1979987,8.53716904 C54.553828,9.25543468 54.2317474,10.1571568 54.2317474,11.2423625 Z M65.7885898,14.6033605 L65.7885898,0 L69.0571435,0 L69.0571435,13.3385947 C69.0571435,13.8070288 69.1744445,14.168108 69.4090498,14.4218432 C69.6436552,14.6755783 69.9756765,14.802444 70.4051237,14.802444 C70.7232327,14.802444 71.1526734,14.6970479 71.6934587,14.4862525 L72.1348328,17.0509165 C71.7053856,17.2460974 71.2003951,17.4022397 70.6198462,17.5193483 C70.0392973,17.6364568 69.5024964,17.6950102 69.0094274,17.6950102 C67.9914786,17.6950102 67.2001943,17.4256646 66.6355508,16.8869654 C66.0709073,16.3482661 65.7885898,15.5870721 65.7885898,14.6033605 Z M76.2121746,17.5076375 L72.9436209,17.5076375 L72.9436209,4.94195519 L76.2121746,4.94195519 L76.2121746,17.5076375 Z M76.2121746,3.18533605 L72.9436209,3.18533605 L72.9436209,0 L76.2121746,0 L76.2121746,3.18533605 Z M77.7247753,11.2189409 C77.7247753,10.0400484 77.9931758,8.96266612 78.5299847,7.98676171 C79.0667937,7.01085731 79.8541016,6.22233838 80.8919323,5.62118126 C81.9297629,5.02002415 83.1246419,4.7194501 84.4766052,4.7194501 C85.8285685,4.7194501 87.0055541,5.00831347 88.0075975,5.58604888 C89.0096409,6.16378429 89.7611621,6.94839966 90.2621838,7.93991853 L87.0652043,8.90020367 C86.7948116,8.44738402 86.4289918,8.09411193 85.9677337,7.84037678 C85.5064757,7.58664164 85.0014852,7.45977597 84.4527472,7.45977597 C83.4984201,7.45977597 82.7011714,7.81109628 82.060977,8.51374745 C81.4207826,9.21639863 81.1006903,10.1181208 81.1006903,11.2189409 C81.1006903,12.3041466 81.4267471,13.2078206 82.0788706,13.9299898 C82.730994,14.6521591 83.5222783,15.0132383 84.4527472,15.0132383 C85.0332961,15.0132383 85.5720851,14.8727102 86.0691305,14.5916497 C86.5661758,14.3105892 86.9141023,13.9553654 87.1129204,13.5259674 L90.3098999,14.4862525 C89.8565946,15.462157 89.1170023,16.2487241 88.0911007,16.8459776 C87.0651992,17.4432311 85.868332,17.7418534 84.5004633,17.7418534 C83.4904672,17.7418534 82.556036,17.5642414 81.6971417,17.2090122 C80.8382474,16.853783 80.1225128,16.3775488 79.5499166,15.7802953 C78.9773204,15.1830418 78.5299863,14.4901601 78.207901,13.7016293 C77.8858156,12.9130986 77.7247753,12.085544 77.7247753,11.2189409 Z M91.6077782,22.7306517 L91.6077782,19.9551935 C92.1087999,20.0957237 92.5899325,20.1659878 93.0511906,20.1659878 C93.4885905,20.1659878 93.8464577,19.9883758 94.1248031,19.6331466 C94.4031485,19.2779174 94.7133001,18.5694215 95.0552673,17.5076375 L89.9735013,4.94195519 L93.3494163,4.94195519 L96.8326925,14.7204684 L99.9223108,4.94195519 L103,4.94195519 L97.5961503,20.0020367 C97.2541831,20.9467121 96.7094296,21.682533 95.9618734,22.2095214 C95.2143173,22.7365098 94.3435069,23 93.3494163,23 C92.8006783,23 92.220138,22.9102181 91.6077782,22.7306517 Z" id="121Policy" fill="#003055"></path>
                <path d="M66.4390046,25.8924731 L65,25.8924731 L65,24.0967742 L66.4390046,24.0967742 L66.4390046,25.8924731 Z M67.0221802,22.9946237 C67.0221802,22.593188 67.0934084,22.2123674 67.2358669,21.8521505 C67.3783255,21.4919337 67.580289,21.1738365 67.8417636,20.8978495 C68.1032382,20.6218624 68.4332322,20.4032266 68.8317555,20.2419355 C69.2302788,20.0806444 69.6693692,20 70.1490398,20 C70.7946115,20 71.3500112,20.1379915 71.8152556,20.4139785 C72.2805,20.6899655 72.632133,21.0627217 72.870165,21.5322581 L71.1444414,22.0483871 C70.9172291,21.6827939 70.5818253,21.5 70.1382202,21.5 C69.766746,21.5 69.4574893,21.6379915 69.2104409,21.9139785 C68.9633925,22.1899655 68.8398702,22.550177 68.8398702,22.9946237 C68.8398702,23.4426546 68.9642941,23.8082423 69.2131458,24.0913978 C69.4619975,24.3745534 69.7703525,24.516129 70.1382202,24.516129 C70.3582195,24.516129 70.560183,24.4641582 70.7441169,24.3602151 C70.9280507,24.2562719 71.0650974,24.1182804 71.155261,23.9462366 L72.8863944,24.4731183 C72.6627885,24.9354862 72.3129588,25.3055542 71.8368948,25.5833333 C71.3608307,25.8611125 70.798218,26 70.1490398,26 C69.6729757,26 69.2356886,25.9184596 68.8371653,25.7553763 C68.438642,25.5922931 68.108648,25.3727612 67.8471734,25.0967742 C67.5856988,24.8207872 67.3828337,24.5017939 67.2385718,24.1397849 C67.09431,23.777776 67.0221802,23.3960594 67.0221802,22.9946237 Z M76.1203679,26 C75.6370907,26 75.1961971,25.9184596 74.7976738,25.7553763 C74.3991505,25.5922931 74.0709597,25.3727612 73.8130917,25.0967742 C73.5552237,24.8207872 73.355965,24.50269 73.2153097,24.1424731 C73.0746545,23.7822563 73.0043279,23.4032278 73.0043279,23.0053763 C73.0043279,22.6039406 73.0746545,22.2231201 73.2153097,21.8629032 C73.355965,21.5026864 73.5552237,21.1836931 73.8130917,20.905914 C74.0709597,20.6281348 74.3991505,20.4077069 74.7976738,20.2446237 C75.1961971,20.0815404 75.6370907,20 76.1203679,20 C76.6000385,20 77.0382272,20.0815404 77.4349473,20.2446237 C77.8316673,20.4077069 78.1598581,20.6281348 78.4195294,20.905914 C78.6792007,21.1836931 78.8793609,21.5026864 79.0200162,21.8629032 C79.1606715,22.2231201 79.2309981,22.6039406 79.2309981,23.0053763 C79.2309981,23.4032278 79.1606715,23.7822563 79.0200162,24.1424731 C78.8793609,24.50269 78.6801023,24.8207872 78.4222343,25.0967742 C78.1643662,25.3727612 77.8370771,25.5922931 77.4403571,25.7553763 C77.043637,25.9184596 76.603645,26 76.1203679,26 Z M74.8220179,23.0053763 C74.8220179,23.4534073 74.9446386,23.8172029 75.1898837,24.0967742 C75.4351288,24.3763455 75.7452871,24.516129 76.1203679,24.516129 C76.4882356,24.516129 76.7938857,24.3745534 77.0373276,24.0913978 C77.2807694,23.8082423 77.4024885,23.4462388 77.4024885,23.0053763 C77.4024885,22.5573454 77.281671,22.1944458 77.0400325,21.9166667 C76.7983939,21.6388875 76.4918421,21.5 76.1203679,21.5 C75.7488937,21.5 75.439637,21.6406796 75.1925886,21.922043 C74.9455402,22.2034064 74.8220179,22.5645139 74.8220179,23.0053763 Z M89,22.1935484 L89,25.8924731 L87.2309981,25.8924731 L87.2309981,22.6451613 C87.2309981,22.2795681 87.164278,22.0062733 87.0308358,21.8252688 C86.8973936,21.6442643 86.7116593,21.5537634 86.4736273,21.5537634 C86.2392018,21.5537634 86.0074847,21.6514327 85.778469,21.8467742 C85.5494534,22.0421157 85.3862596,22.2867369 85.2888829,22.5806452 L85.2888829,25.8924731 L83.519881,25.8924731 L83.519881,22.6451613 C83.519881,22.2795681 83.4531609,22.0062733 83.3197187,21.8252688 C83.1862765,21.6442643 83.0005422,21.5537634 82.7625102,21.5537634 C82.5280847,21.5537634 82.2981708,21.6496406 82.0727617,21.8413978 C81.8473526,22.0331551 81.6823556,22.2795684 81.5777658,22.5806452 L81.5777658,25.8924731 L79.8087639,25.8924731 L79.8087639,20.1129032 L81.4046524,20.1129032 L81.4046524,21.0806452 C81.6210452,20.7329732 81.9140727,20.4659508 82.2837436,20.2795699 C82.6534145,20.093189 83.0798822,20 83.5631593,20 C84.010371,20 84.3683153,20.1048377 84.637003,20.3145161 C84.9056907,20.5241946 85.0833104,20.7939052 85.1698675,21.1236559 C85.3862602,20.7652312 85.6765828,20.4883522 86.0408439,20.2930108 C86.4051051,20.0976693 86.8162451,20 87.2742764,20 C88.4247646,20 89,20.7311755 89,22.1935484 Z" id=".com" fill="url(#linearGradient-1)"></path>
            </g>
            <g id="Group-5">
                <path d="M15.2292776,19.6673725 C14.8808365,21.7060784 13.5831939,23.2785686 11.3723954,24.3422941 L10.4820684,24.7714314 L10.3258707,23.7867255 C10.2354973,23.2288679 10.1888931,22.6646496 10.1864943,22.0993529 C10.1858649,21.9333053 10.1904731,21.7672796 10.2003118,21.6015294 C10.2009125,21.5924118 10.2009125,21.5820784 10.2021141,21.5729608 C10.2118021,21.4176535 10.2252231,21.2626076 10.242365,21.1079608 C10.2519772,21.029549 10.2621901,20.9529608 10.2742053,20.8763725 C10.294411,20.7316204 10.3198603,20.5876673 10.3505019,20.4448039 C10.4383499,20.0268992 10.563625,19.6179559 10.7247757,19.2230392 C10.8021514,19.0355056 10.8877445,18.851552 10.9813004,18.6717255 L11.0245551,18.5908824 C11.0868544,18.470833 11.1539958,18.3534205 11.2258099,18.2389412 L11.2930951,18.1313529 C11.3782724,17.9946845 11.4684489,17.8612719 11.5634373,17.7313922 L11.6715741,17.584902 C11.7448669,17.4882549 11.8193612,17.3940392 11.895057,17.3016471 L12.0092015,17.1636667 C12.1583955,16.9896677 12.3122473,16.8198138 12.4705856,16.6542941 L12.5931407,16.5284706 C12.6339924,16.4859216 12.6754449,16.4451961 12.7156958,16.4038627 C12.9223574,17.0287255 13.0485171,17.6238039 13.0893688,18.1787647 C13.0545593,18.2192398 13.0205101,18.2603779 12.9872395,18.3021569 C12.9620076,18.332549 12.9379772,18.3629412 12.9139468,18.3933333 L12.8346464,18.495451 C12.8286388,18.5051765 12.8208289,18.5136863 12.8148213,18.5228039 C12.7739696,18.576902 12.7343194,18.6322157 12.6946692,18.6869216 C12.5271475,18.9249865 12.3769617,19.1750646 12.2453004,19.4351765 C12.1939976,19.5350301 12.1468958,19.6370364 12.1041217,19.7409216 C12.0446511,19.8829773 11.9907411,20.027351 11.9425171,20.1737059 L11.9082738,20.2867647 C11.895057,20.3250588 11.8842433,20.3633529 11.8746312,20.4022549 L11.8445932,20.5189608 C11.8232457,20.5988887 11.8048099,20.6795837 11.7893232,20.7608824 C11.7710251,20.8435848 11.7555962,20.9269104 11.7430646,21.0107059 C11.734654,21.0532549 11.7280456,21.0958039 11.7238403,21.1395686 L11.707019,21.2702549 C11.7010114,21.3140196 11.6962053,21.359 11.6932015,21.4039804 C11.6871939,21.4495686 11.6841901,21.4951569 11.6799848,21.5407451 C11.6577567,21.8312941 11.6535513,22.1388627 11.6691711,22.467098 L11.6691711,22.4677059 L11.79473,22.382 L11.9154829,22.2944706 C12.1456213,22.1254123 12.3625376,21.9386565 12.5643042,21.7358627 C12.5829278,21.7182353 12.599749,21.6993922 12.6171711,21.6817647 C12.6808517,21.6155098 12.74273,21.5480392 12.8016046,21.4793529 L12.8160228,21.4611176 C12.8448593,21.4276863 12.8724943,21.3954706 12.8995285,21.3608235 C12.9592228,21.2844777 13.0173094,21.2068589 13.073749,21.1280196 C13.1574863,21.0064962 13.2356674,20.8811487 13.3080456,20.7523725 C13.3537034,20.6703137 13.3975589,20.5858235 13.4372091,20.5001176 L13.4912776,20.3797647 L13.5032928,20.3518039 C13.5165095,20.3214118 13.5285247,20.2910196 13.5411407,20.2594118 L13.5537567,20.2247647 C13.5632899,20.2015451 13.5721054,20.1780304 13.5801901,20.1542549 L13.6042205,20.0873922 L13.6462738,19.9573137 C13.6739549,19.8659343 13.6987985,19.7736995 13.7207681,19.6807451 C13.7303802,19.6436667 13.7375894,19.6071961 13.746,19.5701176 C13.7568137,19.5178431 13.7664259,19.4655686 13.776038,19.4132941 C13.8438594,19.0047737 13.8638224,18.5895855 13.8355133,18.1763333 C13.832781,18.1133966 13.8281731,18.0505576 13.8216958,17.987902 C13.8199848,17.9626913 13.8173799,17.9375509 13.8138859,17.9125294 C13.8114829,17.8748431 13.8066768,17.8389804 13.8018707,17.8012941 C13.7890295,17.6879993 13.7730027,17.5750973 13.7538099,17.4627255 C13.656614,16.9053901 13.5077695,16.3585521 13.3092471,15.829451 L13.2491711,15.6714118 C13.2321493,15.627485 13.2147265,15.5837184 13.1969049,15.5401176 C13.1829177,15.5026199 13.1678928,15.4655269 13.1518479,15.4288824 C13.133066,15.3815201 13.113438,15.3345058 13.0929734,15.2878627 C12.9246915,14.8936721 12.7382514,14.5076739 12.5342662,14.1311373 C12.2818238,13.6645129 12.0088036,13.2095909 11.7160304,12.7677451 C11.4349913,12.3435234 11.1394384,11.9293313 10.8299087,11.5259216 C10.5241594,11.1264747 10.2055863,10.7372473 9.87469962,10.3588627 C9.72199273,10.182977 9.56657703,10.0095179 9.40850951,9.83854902 L9.34362738,9.76682353 L9.34242586,9.76682353 L9.25771863,9.858 C9.20725475,9.91270588 9.15619011,9.96862745 9.106327,10.024549 C9.05586312,10.0792549 9.006,10.1351765 8.95673764,10.191098 L8.79813688,10.3722353 C8.55231905,10.6528288 8.31373689,10.9398273 8.08263118,11.2329412 L8.07001521,11.2499608 C7.78625595,11.6070973 7.51396955,11.9734124 7.25358175,12.3483333 L7.24457034,12.361098 C7.15806084,12.485098 7.07275285,12.6103137 6.98984791,12.7367451 C6.90393916,12.8643922 6.82163498,12.9932549 6.74113308,13.1215098 C6.69419969,13.1947758 6.64833665,13.2687381 6.60355894,13.3433725 C6.56931559,13.3992941 6.53507224,13.4552157 6.50323194,13.5111373 C6.46358175,13.5761765 6.42513308,13.6418235 6.38788593,13.7068627 C6.35904943,13.7554902 6.33201521,13.8053333 6.30377947,13.8545686 L6.22207605,14.0010588 L6.22207605,14.0022745 L6.14157414,14.1481569 L6.14157414,14.1493725 C6.11514068,14.198 6.08870722,14.2472353 6.06347529,14.2964706 L6.05987072,14.3031569 C6.02567614,14.3669763 5.99262888,14.4314183 5.96074525,14.496451 C5.86079117,14.6925385 5.7666303,14.891594 5.67838783,15.0933529 C5.24463878,14.6842745 4.87096578,14.3286863 4.57419011,13.981 L4.66430418,13.7974314 C4.69434221,13.7366471 4.72618251,13.6752549 4.75862357,13.6126471 C5.70542205,11.7927647 7.14904943,9.858 8.82036502,8.16515686 L9.34302662,7.63754902 L9.86448669,8.16515686 C11.536403,9.858 12.9794297,11.7927647 13.9268289,13.6126471 C13.9754905,13.7062549 14.0229506,13.7992549 14.0680076,13.8922549 C14.2031889,14.1620268 14.3298137,14.4361014 14.4476882,14.7140588 C14.6747757,15.2471373 14.8574068,15.7668431 14.9955817,16.2725686 C15.0093992,16.3218039 15.0220152,16.3716471 15.0352319,16.4208824 L15.0718783,16.5685882 L15.1061217,16.7144706 L15.1373612,16.856098 C15.1843329,17.0835966 15.2234064,17.3126916 15.2545095,17.5429608 C15.2575133,17.5624118 15.2605171,17.5830784 15.2617186,17.6037451 C15.2677262,17.6420392 15.2719316,17.6797255 15.2755361,17.7180196 C15.2815437,17.7648235 15.285749,17.8116275 15.2899544,17.8578235 C15.347768,18.4611243 15.3271667,19.0694903 15.2286768,19.6673725 L15.2292776,19.6673725 Z" id="Shape"></path>
                <path d="M15.2292776,19.6673725 C14.8808365,21.7060784 13.5831939,23.2785686 11.3723954,24.3422941 L10.4820684,24.7714314 L10.3258707,23.7867255 C10.2354973,23.2288679 10.1888931,22.6646496 10.1864943,22.0993529 C10.1858649,21.9333053 10.1904731,21.7672796 10.2003118,21.6015294 C10.2009125,21.5924118 10.2009125,21.5820784 10.2021141,21.5729608 C10.2118021,21.4176535 10.2252231,21.2626076 10.242365,21.1079608 C10.2519772,21.029549 10.2621901,20.9529608 10.2742053,20.8763725 C10.294411,20.7316204 10.3198603,20.5876673 10.3505019,20.4448039 C10.4383499,20.0268992 10.563625,19.6179559 10.7247757,19.2230392 C10.8021514,19.0355056 10.8877445,18.851552 10.9813004,18.6717255 L11.0245551,18.5908824 C11.0868544,18.470833 11.1539958,18.3534205 11.2258099,18.2389412 L11.2930951,18.1313529 C11.3782724,17.9946845 11.4684489,17.8612719 11.5634373,17.7313922 L11.6715741,17.584902 C11.7448669,17.4882549 11.8193612,17.3940392 11.895057,17.3016471 L12.0092015,17.1636667 C12.1583955,16.9896677 12.3122473,16.8198138 12.4705856,16.6542941 L12.5931407,16.5284706 C12.6339924,16.4859216 12.6754449,16.4451961 12.7156958,16.4038627 C12.9223574,17.0287255 13.0485171,17.6238039 13.0893688,18.1787647 C13.0545593,18.2192398 13.0205101,18.2603779 12.9872395,18.3021569 C12.9620076,18.332549 12.9379772,18.3629412 12.9139468,18.3933333 L12.8346464,18.495451 C12.8286388,18.5051765 12.8208289,18.5136863 12.8148213,18.5228039 C12.7739696,18.576902 12.7343194,18.6322157 12.6946692,18.6869216 C12.5271475,18.9249865 12.3769617,19.1750646 12.2453004,19.4351765 C12.1939976,19.5350301 12.1468958,19.6370364 12.1041217,19.7409216 C12.0446511,19.8829773 11.9907411,20.027351 11.9425171,20.1737059 L11.9082738,20.2867647 C11.895057,20.3250588 11.8842433,20.3633529 11.8746312,20.4022549 L11.8445932,20.5189608 C11.8232457,20.5988887 11.8048099,20.6795837 11.7893232,20.7608824 C11.7710251,20.8435848 11.7555962,20.9269104 11.7430646,21.0107059 C11.734654,21.0532549 11.7280456,21.0958039 11.7238403,21.1395686 L11.707019,21.2702549 C11.7010114,21.3140196 11.6962053,21.359 11.6932015,21.4039804 C11.6871939,21.4495686 11.6841901,21.4951569 11.6799848,21.5407451 C11.6577567,21.8312941 11.6535513,22.1388627 11.6691711,22.467098 L11.6691711,22.4677059 L11.79473,22.382 L11.9154829,22.2944706 C12.1456213,22.1254123 12.3625376,21.9386565 12.5643042,21.7358627 C12.5829278,21.7182353 12.599749,21.6993922 12.6171711,21.6817647 C12.6808517,21.6155098 12.74273,21.5480392 12.8016046,21.4793529 L12.8160228,21.4611176 C12.8448593,21.4276863 12.8724943,21.3954706 12.8995285,21.3608235 C12.9592228,21.2844777 13.0173094,21.2068589 13.073749,21.1280196 C13.1574863,21.0064962 13.2356674,20.8811487 13.3080456,20.7523725 C13.3537034,20.6703137 13.3975589,20.5858235 13.4372091,20.5001176 L13.4912776,20.3797647 L13.5032928,20.3518039 C13.5165095,20.3214118 13.5285247,20.2910196 13.5411407,20.2594118 L13.5537567,20.2247647 C13.5632899,20.2015451 13.5721054,20.1780304 13.5801901,20.1542549 L13.6042205,20.0873922 L13.6462738,19.9573137 C13.6739549,19.8659343 13.6987985,19.7736995 13.7207681,19.6807451 C13.7303802,19.6436667 13.7375894,19.6071961 13.746,19.5701176 C13.7568137,19.5178431 13.7664259,19.4655686 13.776038,19.4132941 C13.8438594,19.0047737 13.8638224,18.5895855 13.8355133,18.1763333 C13.832781,18.1133966 13.8281731,18.0505576 13.8216958,17.987902 C13.8199848,17.9626913 13.8173799,17.9375509 13.8138859,17.9125294 C13.8114829,17.8748431 13.8066768,17.8389804 13.8018707,17.8012941 C13.7890295,17.6879993 13.7730027,17.5750973 13.7538099,17.4627255 C13.656614,16.9053901 13.5077695,16.3585521 13.3092471,15.829451 L13.2491711,15.6714118 C13.2321493,15.627485 13.2147265,15.5837184 13.1969049,15.5401176 C13.1829177,15.5026199 13.1678928,15.4655269 13.1518479,15.4288824 C13.133066,15.3815201 13.113438,15.3345058 13.0929734,15.2878627 C12.9246915,14.8936721 12.7382514,14.5076739 12.5342662,14.1311373 C12.2818238,13.6645129 12.0088036,13.2095909 11.7160304,12.7677451 C11.4349913,12.3435234 11.1394384,11.9293313 10.8299087,11.5259216 C10.5241594,11.1264747 10.2055863,10.7372473 9.87469962,10.3588627 C9.72199273,10.182977 9.56657703,10.0095179 9.40850951,9.83854902 L9.34362738,9.76682353 L9.34242586,9.76682353 L9.25771863,9.858 C9.20725475,9.91270588 9.15619011,9.96862745 9.106327,10.024549 C9.05586312,10.0792549 9.006,10.1351765 8.95673764,10.191098 L8.79813688,10.3722353 C8.55231905,10.6528288 8.31373689,10.9398273 8.08263118,11.2329412 L8.07001521,11.2499608 C7.78625595,11.6070973 7.51396955,11.9734124 7.25358175,12.3483333 L7.24457034,12.361098 C7.15806084,12.485098 7.07275285,12.6103137 6.98984791,12.7367451 C6.90393916,12.8643922 6.82163498,12.9932549 6.74113308,13.1215098 C6.69419969,13.1947758 6.64833665,13.2687381 6.60355894,13.3433725 C6.56931559,13.3992941 6.53507224,13.4552157 6.50323194,13.5111373 C6.46358175,13.5761765 6.42513308,13.6418235 6.38788593,13.7068627 C6.35904943,13.7554902 6.33201521,13.8053333 6.30377947,13.8545686 L6.22207605,14.0010588 L6.22207605,14.0022745 L6.14157414,14.1481569 L6.14157414,14.1493725 C6.11514068,14.198 6.08870722,14.2472353 6.06347529,14.2964706 L6.05987072,14.3031569 C6.02567614,14.3669763 5.99262888,14.4314183 5.96074525,14.496451 C5.86079117,14.6925385 5.7666303,14.891594 5.67838783,15.0933529 C5.24463878,14.6842745 4.87096578,14.3286863 4.57419011,13.981 L4.66430418,13.7974314 C4.69434221,13.7366471 4.72618251,13.6752549 4.75862357,13.6126471 C5.70542205,11.7927647 7.14904943,9.858 8.82036502,8.16515686 L9.34302662,7.63754902 L9.86448669,8.16515686 C11.536403,9.858 12.9794297,11.7927647 13.9268289,13.6126471 C13.9754905,13.7062549 14.0229506,13.7992549 14.0680076,13.8922549 C14.2031889,14.1620268 14.3298137,14.4361014 14.4476882,14.7140588 C14.6747757,15.2471373 14.8574068,15.7668431 14.9955817,16.2725686 C15.0093992,16.3218039 15.0220152,16.3716471 15.0352319,16.4208824 L15.0718783,16.5685882 L15.1061217,16.7144706 L15.1373612,16.856098 C15.1843329,17.0835966 15.2234064,17.3126916 15.2545095,17.5429608 C15.2575133,17.5624118 15.2605171,17.5830784 15.2617186,17.6037451 C15.2677262,17.6420392 15.2719316,17.6797255 15.2755361,17.7180196 C15.2815437,17.7648235 15.285749,17.8116275 15.2899544,17.8578235 C15.347768,18.4611243 15.3271667,19.0694903 15.2286768,19.6673725 L15.2292776,19.6673725 Z" id="Shape" fill="url(#linearGradient-2)" fill-rule="nonzero"></path>
                <path d="M1.99031939,14.0071373 C2.04378707,14.1287059 2.10146008,14.2472353 2.1633384,14.3627255 L2.17234981,14.3803529 C2.20719392,14.4453922 2.24323954,14.5098235 2.28168821,14.5718235 C2.29610646,14.5961373 2.30992395,14.6198431 2.32494297,14.643549 L2.32794677,14.6484118 C2.38976986,14.7490481 2.45488834,14.8475733 2.52319392,14.9438235 L2.52619772,14.9486863 L2.54422053,14.9742157 C2.60200528,15.0554748 2.6616978,15.1353276 2.72324715,15.2137059 L2.74307224,15.2386275 C2.80615209,15.3188627 2.87103422,15.3978824 2.93651711,15.4744706 L2.96295057,15.5060784 C3.00139924,15.5510588 3.03984791,15.5954314 3.07889734,15.6385882 L3.08009886,15.6398039 C3.15897041,15.7288361 3.23989507,15.8159843 3.32280608,15.9011765 L3.34263118,15.9230588 L3.39970342,15.9826275 C3.4958251,16.081098 3.59194677,16.1771373 3.68987072,16.2725686 C3.8664943,16.4464118 4.04552091,16.6153922 4.22274525,16.7819412 C4.46244867,17.0092745 4.70034981,17.2329608 4.93104183,17.4627255 L4.95026616,17.4821765 C4.998327,17.5295882 5.04398479,17.5763922 5.09084411,17.6238039 C5.17174792,17.7051108 5.25067146,17.7884103 5.32754373,17.8736275 C5.3689962,17.9192157 5.40924715,17.9629804 5.4494981,18.0085686 C5.48314068,18.0468627 5.51678327,18.0851569 5.54922433,18.1240588 C5.58286692,18.1617451 5.61530798,18.2006471 5.64654753,18.239549 C5.67898859,18.2760196 5.70902662,18.3143137 5.74026616,18.3538235 L5.79613688,18.4249412 C5.87105725,18.5195663 5.94259387,18.616884 6.01060837,18.7167059 C6.02442586,18.7349412 6.03764259,18.7543922 6.05025856,18.7726275 C6.06527757,18.7945098 6.08029658,18.817 6.09351331,18.8382745 C6.11754373,18.8729216 6.13977186,18.9081765 6.162,18.9428235 C6.19504183,18.995098 6.22628137,19.0461569 6.25812167,19.0996471 L6.25812167,19.1014706 L6.32901141,19.2230392 L6.35063878,19.262549 L6.39269202,19.3415686 L6.41011407,19.375 C6.43294297,19.4187647 6.4551711,19.4637451 6.47619772,19.5087255 L6.47739924,19.5111569 C6.50022814,19.5585686 6.52245627,19.6053725 6.54348289,19.654 C6.60919425,19.8006036 6.66793567,19.9503041 6.7195057,20.1025882 C6.72911787,20.1287255 6.73752852,20.1548627 6.74593916,20.1816078 L6.77057034,20.2606275 C6.78297477,20.2998375 6.7943929,20.3393601 6.80481369,20.3791569 C6.82059545,20.4317488 6.83462116,20.4848639 6.84686692,20.5384118 C6.86655374,20.6106029 6.88318988,20.6836103 6.89673004,20.7572353 C6.90874525,20.8137647 6.9201597,20.870902 6.93037262,20.9298627 L6.93037262,20.9304706 C6.93938403,20.9809216 6.94779468,21.0325882 6.95440304,21.0836471 L6.96341445,21.1444314 C6.97885524,21.2565395 6.99147529,21.3690269 7.00126236,21.4817843 C7.00546768,21.5383137 7.009673,21.5960588 7.01207605,21.6538039 L7.01327757,21.6641373 C7.01507985,21.680549 7.01507985,21.6975686 7.01568061,21.7145882 C7.0286508,21.9656587 7.0286508,22.2172433 7.01568061,22.4683137 C6.69740418,22.2566549 6.40005211,22.0144217 6.12775665,21.7449804 L6.02562738,21.638 L6.01361217,21.6252353 C5.98777947,21.5966667 5.96194677,21.5693137 5.93671483,21.5401373 L5.92109506,21.521902 L5.88384791,21.4793529 C5.87637706,21.4712821 5.86916422,21.4629706 5.86222053,21.4544314 L5.78952852,21.3662941 L5.75708745,21.3255686 C5.70176917,21.2567387 5.64964688,21.1853412 5.60088973,21.1116078 L5.587673,21.0933725 C5.50297015,20.9714001 5.42534131,20.8445525 5.35517871,20.7134706 L5.35157414,20.7055686 C5.34585667,20.6966578 5.34083509,20.6873092 5.33655513,20.6776078 C5.32678142,20.6611164 5.31795562,20.6440685 5.31012167,20.626549 L5.30411407,20.615 C5.29202489,20.593996 5.28119175,20.5722773 5.271673,20.5499608 C5.26091838,20.5286398 5.25089965,20.506947 5.24163498,20.4849216 C5.22966842,20.4610613 5.21864575,20.4367283 5.20859316,20.4119804 L5.20378707,20.4022549 C5.18538519,20.3611467 5.16795815,20.3195989 5.15152091,20.2776471 L5.14010646,20.2490784 C5.11840114,20.1957764 5.09876133,20.1416371 5.08123194,20.0867843 C5.06387434,20.0375959 5.04784808,19.9879368 5.0331711,19.9378627 C5.015602,19.8809775 4.99957572,19.8236161 4.98511027,19.7658431 C4.97284233,19.722142 4.9624197,19.677932 4.95387072,19.6333333 L4.94906464,19.6126667 C4.93349451,19.5465064 4.92026932,19.4798036 4.90941445,19.4126863 C4.8725133,19.1974965 4.85043226,18.9799728 4.8433308,18.7616863 C4.84072219,18.725683 4.83951973,18.6895895 4.83972624,18.6534902 L4.83852471,18.5404314 C4.83759436,18.5074119 4.83759436,18.4743724 4.83852471,18.4413529 C4.49609125,18.0608431 4.11460837,17.7003922 3.71930798,17.3283922 L3.49762738,17.1180784 C3.39468865,17.6766489 3.35158521,18.2448226 3.36906464,18.8127451 C3.37793307,19.0623113 3.40120211,19.3111404 3.43875285,19.5579608 L3.45677567,19.6673725 C3.80401521,21.7060784 5.10105703,23.2785686 7.31305703,24.3422941 L8.20278327,24.7714314 L8.35898099,23.7867255 C8.37971169,23.6533091 8.39833763,23.5195666 8.41485171,23.385549 L8.4256654,23.2986275 L8.43527757,23.2117059 C8.44248669,23.1472745 8.44909506,23.0828431 8.4545019,23.0196275 L8.46651711,22.8810392 C8.48755229,22.6210143 8.49837451,22.3602468 8.49895817,22.0993529 C8.49895817,22.0653137 8.49895817,22.0324902 8.49775665,21.9990588 L8.49715589,21.9182157 C8.49135701,21.6708782 8.47552365,21.4238859 8.44969582,21.1778627 C8.44250553,21.1083955 8.43389278,21.0390865 8.42386312,20.9699804 L8.39863118,20.789451 L8.39442586,20.7663529 C8.38841825,20.7292745 8.38241065,20.6915882 8.37520152,20.6551176 C8.35538238,20.5425098 8.33274647,20.430428 8.30731559,20.3189804 L8.28208365,20.212 C8.26365843,20.139709 8.24463367,20.0675757 8.22501141,19.9956078 C8.21064838,19.943082 8.19542703,19.8908004 8.17935361,19.8387843 L8.14330798,19.7232941 C8.1171286,19.6420052 8.08908555,19.5613429 8.05920152,19.4813725 C8.04127354,19.4308631 8.02264815,19.3806098 8.0033308,19.3306275 L7.96728517,19.2412745 L7.93123954,19.1537451 C7.9033083,19.0886831 7.87487142,19.0238445 7.84593156,18.9592353 L7.7966692,18.8565098 C7.69917964,18.654696 7.59253119,18.4575448 7.47706464,18.2656863 C7.44702662,18.2170588 7.41638783,18.1672157 7.38454753,18.1185882 C7.37599228,18.1044444 7.36717963,18.0904616 7.35811407,18.0766471 C7.32927757,18.0316667 7.2998403,17.987902 7.27040304,17.9441373 C7.11568673,17.7167387 6.95070339,17.496669 6.77597719,17.2846275 C6.75314829,17.255451 6.72911787,17.2274902 6.70508745,17.1995294 C6.67204563,17.1600196 6.6390038,17.1205098 6.60476046,17.0816078 L6.50323194,16.9661176 L6.41311787,16.8658235 L6.36265399,16.8123333 C6.32231087,16.767694 6.28125348,16.7237208 6.2394981,16.6804314 L6.15959696,16.596549 C6.10588485,16.5396755 6.0510034,16.4839443 5.99498859,16.4293922 L5.86522433,16.2987059 L5.85681369,16.2914118 C5.65206872,16.0860507 5.44275008,15.885411 5.22901901,15.6896471 L5.11607605,15.5838824 L5.00553612,15.4793333 C4.96903975,15.4449641 4.93299101,15.4101114 4.89739924,15.3747843 C4.6625019,15.151098 4.44082129,14.9334902 4.2371635,14.7140588 C4.1347648,14.6033275 4.03579181,14.4894032 3.94038783,14.372451 C3.91275285,14.3390196 3.88511787,14.3055882 3.85988593,14.271549 C3.84388081,14.2523224 3.82864915,14.23245 3.81422814,14.2119804 C3.72301723,14.0936398 3.63837965,13.9702599 3.56070722,13.8424118 C3.55469962,13.8320784 3.54749049,13.8217451 3.54268441,13.8120196 C3.51769543,13.7720259 3.49424817,13.731067 3.47239544,13.6892353 C3.45747703,13.6640162 3.44345041,13.6382678 3.43034221,13.6120392 C3.41652471,13.585902 3.40390875,13.5591569 3.39069202,13.5330196 L3.35404563,13.4552157 L3.34563498,13.4369804 L3.318,13.372549 C3.30598164,13.3456212 3.29496004,13.3182492 3.28495817,13.2904902 C3.27494625,13.2673923 3.26592642,13.243867 3.25792395,13.2199804 L3.25071483,13.1993137 C3.21308244,13.0968857 3.18197935,12.9921218 3.15759696,12.8856667 C3.15158935,12.8613529 3.14558175,12.8370392 3.14077567,12.8127255 C3.13091558,12.7699067 3.12269902,12.7267175 3.11614449,12.6832549 C3.11171022,12.6602973 3.10810327,12.6371839 3.1053308,12.6139608 C3.10216044,12.5985151 3.0999533,12.5828829 3.09872243,12.5671569 C3.09494895,12.5454129 3.09214258,12.5235085 3.09031179,12.5015098 C3.08593693,12.4681869 3.08253115,12.4347411 3.08009886,12.4012157 C3.07672002,12.3686962 3.07471565,12.3360455 3.07409125,12.3033529 C3.06582078,12.1717985 3.06541954,12.0398584 3.07288973,11.9082549 C3.07349049,11.8827255 3.07529278,11.8571961 3.07709506,11.8310588 C3.07829658,11.8079608 3.08009886,11.7836471 3.08310266,11.7593333 L3.08370342,11.7477843 C3.08730798,11.6991569 3.09331559,11.6505294 3.09932319,11.6006863 C3.10352852,11.5678627 3.10713308,11.5356471 3.11253992,11.5028235 C3.1213796,11.4310689 3.13300328,11.3596936 3.14738403,11.2888627 L3.16540684,11.1934314 C3.17501901,11.1472353 3.18523194,11.0992157 3.19724715,11.0511961 C3.22439024,10.9321156 3.25524467,10.8139325 3.28976426,10.6968235 C3.30057795,10.656098 3.31379468,10.6159804 3.32580989,10.5740392 C3.3378251,10.5333137 3.35104183,10.4919804 3.36606084,10.4488235 C3.37927757,10.408098 3.3924943,10.365549 3.40751331,10.323 L3.40931559,10.3193529 C3.69542774,9.74168487 4.00303681,9.17517518 4.33148289,8.62103922 C4.3838772,8.53371021 4.43594348,8.44618017 4.48768061,8.35845098 L4.63186312,8.12321569 C4.7342723,7.95697936 4.83840989,7.79183947 4.94425856,7.62782353 L5.12088213,7.35794118 C5.17254753,7.28013725 5.22421293,7.20233333 5.27707985,7.12452941 L5.43988593,6.88382353 C5.59488213,6.65892157 5.75348289,6.43341176 5.91749049,6.20729412 L6.07068441,5.99698039 C6.28773086,5.70057142 6.51004845,5.40815123 6.73752852,5.11986275 C6.80180989,5.03598039 6.8684943,4.95270588 6.93577947,4.86882353 C7.00186312,4.78494118 7.06974905,4.70227451 7.13763498,4.61778431 C7.20492015,4.5345098 7.27340684,4.45062745 7.3424943,4.36796078 C7.39596198,4.30231373 7.45063118,4.23788235 7.50469962,4.17284314 L7.67831939,3.96617647 C8.13811112,3.42330495 8.61228335,2.89307313 9.10031939,2.37605882 L9.34242586,2.12076471 C9.50358408,2.2900375 9.66378946,2.46023633 9.82303422,2.63135294 C10.2274369,3.06759047 10.6222335,3.5128436 11.0071331,3.96678431 L11.1807529,4.17284314 L11.3429582,4.36735294 C11.4120456,4.45062745 11.4799316,4.5345098 11.5472167,4.61778431 C11.6157034,4.70227451 11.6829886,4.78494118 11.7490722,4.86882353 C11.8169582,4.95270588 11.8830418,5.03598039 11.9473232,5.11986275 C11.9875741,5.16909804 12.0254221,5.21894118 12.0638707,5.26939216 C12.4752473,5.79421162 12.8693612,6.33264956 13.2455665,6.88382353 L13.4083726,7.12452941 L13.5645703,7.35794118 L13.7405932,7.62782353 C13.7940608,7.70988235 13.8457262,7.79194118 13.8967909,7.874 C14.0053493,8.04559273 14.1122895,8.21822801 14.217597,8.39188235 L14.3533688,8.62103922 C14.4032319,8.70370588 14.4512928,8.78698039 14.4987529,8.86903922 C14.773376,9.3438086 15.0326415,9.82750299 15.2761369,10.3193529 L15.2773384,10.323 L15.2839468,10.3412353 L15.3193916,10.4488235 L15.3590418,10.5740392 C15.3698555,10.6092941 15.3806692,10.644549 15.3902814,10.6791961 C15.4143118,10.7582157 15.4353384,10.8354118 15.453962,10.9107843 C15.4629734,10.9442157 15.4701825,10.9776471 15.4779924,11.0098627 C15.4852015,11.036 15.4900076,11.0603137 15.4954144,11.0858431 L15.496616,11.0894902 L15.5128365,11.1648627 C15.5212471,11.2019412 15.5284563,11.2396275 15.5350646,11.2767059 L15.5356654,11.2797451 C15.5404715,11.3064902 15.5458783,11.3326275 15.5494829,11.3599804 C15.5572928,11.3970588 15.5626996,11.4347451 15.5681065,11.4718235 C15.5741141,11.508902 15.5795209,11.5459804 15.5831255,11.5818431 C15.5855285,11.601902 15.5891331,11.6219608 15.5903346,11.6420196 L15.5921369,11.6602549 C15.6053234,11.7665507 15.6129437,11.8734779 15.6149658,11.9805882 L15.6149658,11.985451 C15.6161673,12.0061176 15.6161673,12.0249608 15.6161673,12.0450196 C15.6191372,12.1555395 15.615928,12.2661409 15.6065551,12.3762941 L15.6047529,12.4012157 C15.594778,12.5326859 15.5757072,12.6632871 15.5476806,12.7920588 C15.5470798,12.803 15.544076,12.8121176 15.541673,12.822451 L15.5386692,12.8321765 L15.5368669,12.841902 C15.5320608,12.8692549 15.5248517,12.8941765 15.5182433,12.9203137 C15.4754379,13.094434 15.4167107,13.2641461 15.3428213,13.4272549 C15.2953016,13.5362963 15.2415425,13.6424435 15.1818175,13.7451569 C15.1667985,13.7725098 15.1499772,13.7998627 15.1349582,13.8266078 C15.1092913,13.8693017 15.0824467,13.9112594 15.0544563,13.9524314 C15.0476851,13.9639962 15.0402635,13.9751584 15.0322281,13.9858627 L15.0268213,13.9943725 C15.0104968,14.0203121 14.9932641,14.045655 14.9751559,14.0703529 C15.210654,14.5864118 15.4191179,15.1170588 15.5885323,15.6586471 L15.6047529,15.6404118 L15.6065551,15.6379804 C15.6438023,15.5966471 15.6810494,15.554098 15.7176958,15.511549 L15.727308,15.5 C15.8072091,15.4076078 15.8835057,15.3133922 15.9592015,15.2167451 L15.9748213,15.1966863 C16.0024563,15.1620392 16.0288897,15.1273922 16.0547224,15.0909216 C16.1270111,14.996323 16.1957469,14.8989989 16.2607833,14.7991569 C16.2938251,14.7499216 16.3256654,14.6994706 16.3569049,14.6484118 L16.3581065,14.6465882 C16.3929793,14.592002 16.4260395,14.5362519 16.4572319,14.4794314 C16.4782586,14.4417451 16.5004867,14.403451 16.5209125,14.3651569 C16.583817,14.2480796 16.6419395,14.1284361 16.6951331,14.0065294 L16.6951331,14.0071373 C17.1709354,12.9215294 17.2856806,11.5696863 16.6410646,9.74372549 L16.6458707,9.74190196 C15.1271483,6.66621569 12.7901901,3.48901961 9.86448669,0.528823529 L9.3418251,0 L8.81976426,0.528215686 C5.8946616,3.48901961 3.55770342,6.66621569 2.03958175,9.74190196 L2.04438783,9.74372549 C1.39977186,11.5696863 1.51391635,12.9215294 1.99031939,14.0071373 Z" id="Shape"></path>
                <path d="M1.99031939,14.0071373 C2.04378707,14.1287059 2.10146008,14.2472353 2.1633384,14.3627255 L2.17234981,14.3803529 C2.20719392,14.4453922 2.24323954,14.5098235 2.28168821,14.5718235 C2.29610646,14.5961373 2.30992395,14.6198431 2.32494297,14.643549 L2.32794677,14.6484118 C2.38976986,14.7490481 2.45488834,14.8475733 2.52319392,14.9438235 L2.52619772,14.9486863 L2.54422053,14.9742157 C2.60200528,15.0554748 2.6616978,15.1353276 2.72324715,15.2137059 L2.74307224,15.2386275 C2.80615209,15.3188627 2.87103422,15.3978824 2.93651711,15.4744706 L2.96295057,15.5060784 C3.00139924,15.5510588 3.03984791,15.5954314 3.07889734,15.6385882 L3.08009886,15.6398039 C3.15897041,15.7288361 3.23989507,15.8159843 3.32280608,15.9011765 L3.34263118,15.9230588 L3.39970342,15.9826275 C3.4958251,16.081098 3.59194677,16.1771373 3.68987072,16.2725686 C3.8664943,16.4464118 4.04552091,16.6153922 4.22274525,16.7819412 C4.46244867,17.0092745 4.70034981,17.2329608 4.93104183,17.4627255 L4.95026616,17.4821765 C4.998327,17.5295882 5.04398479,17.5763922 5.09084411,17.6238039 C5.17174792,17.7051108 5.25067146,17.7884103 5.32754373,17.8736275 C5.3689962,17.9192157 5.40924715,17.9629804 5.4494981,18.0085686 C5.48314068,18.0468627 5.51678327,18.0851569 5.54922433,18.1240588 C5.58286692,18.1617451 5.61530798,18.2006471 5.64654753,18.239549 C5.67898859,18.2760196 5.70902662,18.3143137 5.74026616,18.3538235 L5.79613688,18.4249412 C5.87105725,18.5195663 5.94259387,18.616884 6.01060837,18.7167059 C6.02442586,18.7349412 6.03764259,18.7543922 6.05025856,18.7726275 C6.06527757,18.7945098 6.08029658,18.817 6.09351331,18.8382745 C6.11754373,18.8729216 6.13977186,18.9081765 6.162,18.9428235 C6.19504183,18.995098 6.22628137,19.0461569 6.25812167,19.0996471 L6.25812167,19.1014706 L6.32901141,19.2230392 L6.35063878,19.262549 L6.39269202,19.3415686 L6.41011407,19.375 C6.43294297,19.4187647 6.4551711,19.4637451 6.47619772,19.5087255 L6.47739924,19.5111569 C6.50022814,19.5585686 6.52245627,19.6053725 6.54348289,19.654 C6.60919425,19.8006036 6.66793567,19.9503041 6.7195057,20.1025882 C6.72911787,20.1287255 6.73752852,20.1548627 6.74593916,20.1816078 L6.77057034,20.2606275 C6.78297477,20.2998375 6.7943929,20.3393601 6.80481369,20.3791569 C6.82059545,20.4317488 6.83462116,20.4848639 6.84686692,20.5384118 C6.86655374,20.6106029 6.88318988,20.6836103 6.89673004,20.7572353 C6.90874525,20.8137647 6.9201597,20.870902 6.93037262,20.9298627 L6.93037262,20.9304706 C6.93938403,20.9809216 6.94779468,21.0325882 6.95440304,21.0836471 L6.96341445,21.1444314 C6.97885524,21.2565395 6.99147529,21.3690269 7.00126236,21.4817843 C7.00546768,21.5383137 7.009673,21.5960588 7.01207605,21.6538039 L7.01327757,21.6641373 C7.01507985,21.680549 7.01507985,21.6975686 7.01568061,21.7145882 C7.0286508,21.9656587 7.0286508,22.2172433 7.01568061,22.4683137 C6.69740418,22.2566549 6.40005211,22.0144217 6.12775665,21.7449804 L6.02562738,21.638 L6.01361217,21.6252353 C5.98777947,21.5966667 5.96194677,21.5693137 5.93671483,21.5401373 L5.92109506,21.521902 L5.88384791,21.4793529 C5.87637706,21.4712821 5.86916422,21.4629706 5.86222053,21.4544314 L5.78952852,21.3662941 L5.75708745,21.3255686 C5.70176917,21.2567387 5.64964688,21.1853412 5.60088973,21.1116078 L5.587673,21.0933725 C5.50297015,20.9714001 5.42534131,20.8445525 5.35517871,20.7134706 L5.35157414,20.7055686 C5.34585667,20.6966578 5.34083509,20.6873092 5.33655513,20.6776078 C5.32678142,20.6611164 5.31795562,20.6440685 5.31012167,20.626549 L5.30411407,20.615 C5.29202489,20.593996 5.28119175,20.5722773 5.271673,20.5499608 C5.26091838,20.5286398 5.25089965,20.506947 5.24163498,20.4849216 C5.22966842,20.4610613 5.21864575,20.4367283 5.20859316,20.4119804 L5.20378707,20.4022549 C5.18538519,20.3611467 5.16795815,20.3195989 5.15152091,20.2776471 L5.14010646,20.2490784 C5.11840114,20.1957764 5.09876133,20.1416371 5.08123194,20.0867843 C5.06387434,20.0375959 5.04784808,19.9879368 5.0331711,19.9378627 C5.015602,19.8809775 4.99957572,19.8236161 4.98511027,19.7658431 C4.97284233,19.722142 4.9624197,19.677932 4.95387072,19.6333333 L4.94906464,19.6126667 C4.93349451,19.5465064 4.92026932,19.4798036 4.90941445,19.4126863 C4.8725133,19.1974965 4.85043226,18.9799728 4.8433308,18.7616863 C4.84072219,18.725683 4.83951973,18.6895895 4.83972624,18.6534902 L4.83852471,18.5404314 C4.83759436,18.5074119 4.83759436,18.4743724 4.83852471,18.4413529 C4.49609125,18.0608431 4.11460837,17.7003922 3.71930798,17.3283922 L3.49762738,17.1180784 C3.39468865,17.6766489 3.35158521,18.2448226 3.36906464,18.8127451 C3.37793307,19.0623113 3.40120211,19.3111404 3.43875285,19.5579608 L3.45677567,19.6673725 C3.80401521,21.7060784 5.10105703,23.2785686 7.31305703,24.3422941 L8.20278327,24.7714314 L8.35898099,23.7867255 C8.37971169,23.6533091 8.39833763,23.5195666 8.41485171,23.385549 L8.4256654,23.2986275 L8.43527757,23.2117059 C8.44248669,23.1472745 8.44909506,23.0828431 8.4545019,23.0196275 L8.46651711,22.8810392 C8.48755229,22.6210143 8.49837451,22.3602468 8.49895817,22.0993529 C8.49895817,22.0653137 8.49895817,22.0324902 8.49775665,21.9990588 L8.49715589,21.9182157 C8.49135701,21.6708782 8.47552365,21.4238859 8.44969582,21.1778627 C8.44250553,21.1083955 8.43389278,21.0390865 8.42386312,20.9699804 L8.39863118,20.789451 L8.39442586,20.7663529 C8.38841825,20.7292745 8.38241065,20.6915882 8.37520152,20.6551176 C8.35538238,20.5425098 8.33274647,20.430428 8.30731559,20.3189804 L8.28208365,20.212 C8.26365843,20.139709 8.24463367,20.0675757 8.22501141,19.9956078 C8.21064838,19.943082 8.19542703,19.8908004 8.17935361,19.8387843 L8.14330798,19.7232941 C8.1171286,19.6420052 8.08908555,19.5613429 8.05920152,19.4813725 C8.04127354,19.4308631 8.02264815,19.3806098 8.0033308,19.3306275 L7.96728517,19.2412745 L7.93123954,19.1537451 C7.9033083,19.0886831 7.87487142,19.0238445 7.84593156,18.9592353 L7.7966692,18.8565098 C7.69917964,18.654696 7.59253119,18.4575448 7.47706464,18.2656863 C7.44702662,18.2170588 7.41638783,18.1672157 7.38454753,18.1185882 C7.37599228,18.1044444 7.36717963,18.0904616 7.35811407,18.0766471 C7.32927757,18.0316667 7.2998403,17.987902 7.27040304,17.9441373 C7.11568673,17.7167387 6.95070339,17.496669 6.77597719,17.2846275 C6.75314829,17.255451 6.72911787,17.2274902 6.70508745,17.1995294 C6.67204563,17.1600196 6.6390038,17.1205098 6.60476046,17.0816078 L6.50323194,16.9661176 L6.41311787,16.8658235 L6.36265399,16.8123333 C6.32231087,16.767694 6.28125348,16.7237208 6.2394981,16.6804314 L6.15959696,16.596549 C6.10588485,16.5396755 6.0510034,16.4839443 5.99498859,16.4293922 L5.86522433,16.2987059 L5.85681369,16.2914118 C5.65206872,16.0860507 5.44275008,15.885411 5.22901901,15.6896471 L5.11607605,15.5838824 L5.00553612,15.4793333 C4.96903975,15.4449641 4.93299101,15.4101114 4.89739924,15.3747843 C4.6625019,15.151098 4.44082129,14.9334902 4.2371635,14.7140588 C4.1347648,14.6033275 4.03579181,14.4894032 3.94038783,14.372451 C3.91275285,14.3390196 3.88511787,14.3055882 3.85988593,14.271549 C3.84388081,14.2523224 3.82864915,14.23245 3.81422814,14.2119804 C3.72301723,14.0936398 3.63837965,13.9702599 3.56070722,13.8424118 C3.55469962,13.8320784 3.54749049,13.8217451 3.54268441,13.8120196 C3.51769543,13.7720259 3.49424817,13.731067 3.47239544,13.6892353 C3.45747703,13.6640162 3.44345041,13.6382678 3.43034221,13.6120392 C3.41652471,13.585902 3.40390875,13.5591569 3.39069202,13.5330196 L3.35404563,13.4552157 L3.34563498,13.4369804 L3.318,13.372549 C3.30598164,13.3456212 3.29496004,13.3182492 3.28495817,13.2904902 C3.27494625,13.2673923 3.26592642,13.243867 3.25792395,13.2199804 L3.25071483,13.1993137 C3.21308244,13.0968857 3.18197935,12.9921218 3.15759696,12.8856667 C3.15158935,12.8613529 3.14558175,12.8370392 3.14077567,12.8127255 C3.13091558,12.7699067 3.12269902,12.7267175 3.11614449,12.6832549 C3.11171022,12.6602973 3.10810327,12.6371839 3.1053308,12.6139608 C3.10216044,12.5985151 3.0999533,12.5828829 3.09872243,12.5671569 C3.09494895,12.5454129 3.09214258,12.5235085 3.09031179,12.5015098 C3.08593693,12.4681869 3.08253115,12.4347411 3.08009886,12.4012157 C3.07672002,12.3686962 3.07471565,12.3360455 3.07409125,12.3033529 C3.06582078,12.1717985 3.06541954,12.0398584 3.07288973,11.9082549 C3.07349049,11.8827255 3.07529278,11.8571961 3.07709506,11.8310588 C3.07829658,11.8079608 3.08009886,11.7836471 3.08310266,11.7593333 L3.08370342,11.7477843 C3.08730798,11.6991569 3.09331559,11.6505294 3.09932319,11.6006863 C3.10352852,11.5678627 3.10713308,11.5356471 3.11253992,11.5028235 C3.1213796,11.4310689 3.13300328,11.3596936 3.14738403,11.2888627 L3.16540684,11.1934314 C3.17501901,11.1472353 3.18523194,11.0992157 3.19724715,11.0511961 C3.22439024,10.9321156 3.25524467,10.8139325 3.28976426,10.6968235 C3.30057795,10.656098 3.31379468,10.6159804 3.32580989,10.5740392 C3.3378251,10.5333137 3.35104183,10.4919804 3.36606084,10.4488235 C3.37927757,10.408098 3.3924943,10.365549 3.40751331,10.323 L3.40931559,10.3193529 C3.69542774,9.74168487 4.00303681,9.17517518 4.33148289,8.62103922 C4.3838772,8.53371021 4.43594348,8.44618017 4.48768061,8.35845098 L4.63186312,8.12321569 C4.7342723,7.95697936 4.83840989,7.79183947 4.94425856,7.62782353 L5.12088213,7.35794118 C5.17254753,7.28013725 5.22421293,7.20233333 5.27707985,7.12452941 L5.43988593,6.88382353 C5.59488213,6.65892157 5.75348289,6.43341176 5.91749049,6.20729412 L6.07068441,5.99698039 C6.28773086,5.70057142 6.51004845,5.40815123 6.73752852,5.11986275 C6.80180989,5.03598039 6.8684943,4.95270588 6.93577947,4.86882353 C7.00186312,4.78494118 7.06974905,4.70227451 7.13763498,4.61778431 C7.20492015,4.5345098 7.27340684,4.45062745 7.3424943,4.36796078 C7.39596198,4.30231373 7.45063118,4.23788235 7.50469962,4.17284314 L7.67831939,3.96617647 C8.13811112,3.42330495 8.61228335,2.89307313 9.10031939,2.37605882 L9.34242586,2.12076471 C9.50358408,2.2900375 9.66378946,2.46023633 9.82303422,2.63135294 C10.2274369,3.06759047 10.6222335,3.5128436 11.0071331,3.96678431 L11.1807529,4.17284314 L11.3429582,4.36735294 C11.4120456,4.45062745 11.4799316,4.5345098 11.5472167,4.61778431 C11.6157034,4.70227451 11.6829886,4.78494118 11.7490722,4.86882353 C11.8169582,4.95270588 11.8830418,5.03598039 11.9473232,5.11986275 C11.9875741,5.16909804 12.0254221,5.21894118 12.0638707,5.26939216 C12.4752473,5.79421162 12.8693612,6.33264956 13.2455665,6.88382353 L13.4083726,7.12452941 L13.5645703,7.35794118 L13.7405932,7.62782353 C13.7940608,7.70988235 13.8457262,7.79194118 13.8967909,7.874 C14.0053493,8.04559273 14.1122895,8.21822801 14.217597,8.39188235 L14.3533688,8.62103922 C14.4032319,8.70370588 14.4512928,8.78698039 14.4987529,8.86903922 C14.773376,9.3438086 15.0326415,9.82750299 15.2761369,10.3193529 L15.2773384,10.323 L15.2839468,10.3412353 L15.3193916,10.4488235 L15.3590418,10.5740392 C15.3698555,10.6092941 15.3806692,10.644549 15.3902814,10.6791961 C15.4143118,10.7582157 15.4353384,10.8354118 15.453962,10.9107843 C15.4629734,10.9442157 15.4701825,10.9776471 15.4779924,11.0098627 C15.4852015,11.036 15.4900076,11.0603137 15.4954144,11.0858431 L15.496616,11.0894902 L15.5128365,11.1648627 C15.5212471,11.2019412 15.5284563,11.2396275 15.5350646,11.2767059 L15.5356654,11.2797451 C15.5404715,11.3064902 15.5458783,11.3326275 15.5494829,11.3599804 C15.5572928,11.3970588 15.5626996,11.4347451 15.5681065,11.4718235 C15.5741141,11.508902 15.5795209,11.5459804 15.5831255,11.5818431 C15.5855285,11.601902 15.5891331,11.6219608 15.5903346,11.6420196 L15.5921369,11.6602549 C15.6053234,11.7665507 15.6129437,11.8734779 15.6149658,11.9805882 L15.6149658,11.985451 C15.6161673,12.0061176 15.6161673,12.0249608 15.6161673,12.0450196 C15.6191372,12.1555395 15.615928,12.2661409 15.6065551,12.3762941 L15.6047529,12.4012157 C15.594778,12.5326859 15.5757072,12.6632871 15.5476806,12.7920588 C15.5470798,12.803 15.544076,12.8121176 15.541673,12.822451 L15.5386692,12.8321765 L15.5368669,12.841902 C15.5320608,12.8692549 15.5248517,12.8941765 15.5182433,12.9203137 C15.4754379,13.094434 15.4167107,13.2641461 15.3428213,13.4272549 C15.2953016,13.5362963 15.2415425,13.6424435 15.1818175,13.7451569 C15.1667985,13.7725098 15.1499772,13.7998627 15.1349582,13.8266078 C15.1092913,13.8693017 15.0824467,13.9112594 15.0544563,13.9524314 C15.0476851,13.9639962 15.0402635,13.9751584 15.0322281,13.9858627 L15.0268213,13.9943725 C15.0104968,14.0203121 14.9932641,14.045655 14.9751559,14.0703529 C15.210654,14.5864118 15.4191179,15.1170588 15.5885323,15.6586471 L15.6047529,15.6404118 L15.6065551,15.6379804 C15.6438023,15.5966471 15.6810494,15.554098 15.7176958,15.511549 L15.727308,15.5 C15.8072091,15.4076078 15.8835057,15.3133922 15.9592015,15.2167451 L15.9748213,15.1966863 C16.0024563,15.1620392 16.0288897,15.1273922 16.0547224,15.0909216 C16.1270111,14.996323 16.1957469,14.8989989 16.2607833,14.7991569 C16.2938251,14.7499216 16.3256654,14.6994706 16.3569049,14.6484118 L16.3581065,14.6465882 C16.3929793,14.592002 16.4260395,14.5362519 16.4572319,14.4794314 C16.4782586,14.4417451 16.5004867,14.403451 16.5209125,14.3651569 C16.583817,14.2480796 16.6419395,14.1284361 16.6951331,14.0065294 L16.6951331,14.0071373 C17.1709354,12.9215294 17.2856806,11.5696863 16.6410646,9.74372549 L16.6458707,9.74190196 C15.1271483,6.66621569 12.7901901,3.48901961 9.86448669,0.528823529 L9.3418251,0 L8.81976426,0.528215686 C5.8946616,3.48901961 3.55770342,6.66621569 2.03958175,9.74190196 L2.04438783,9.74372549 C1.39977186,11.5696863 1.51391635,12.9215294 1.99031939,14.0071373 Z" id="Shape" fill="url(#linearGradient-3)" fill-rule="nonzero"></path>
                <path d="M17.8167529,12.5574314 C17.7416578,13.5628039 17.407635,14.3931176 16.9498555,15.1079412 C16.9522586,15.1213137 16.9558631,15.1346863 16.9576654,15.1480588 C17.0418559,15.5894211 17.1046106,16.0346941 17.1457034,16.4822745 C17.1892808,16.9578694 17.2041272,17.4357121 17.1901597,17.9131373 C17.1866169,18.0293165 17.1812094,18.1454298 17.1739392,18.2614314 L17.1739392,18.2626471 C17.151613,18.6048193 17.1123138,18.9456409 17.0561901,19.2838235 C17.0012168,19.6146186 16.9284162,19.9421266 16.8381141,20.2648824 C16.1971027,22.5461176 14.7318479,24.3818039 12.4813992,25.7202745 C11.0708137,26.559098 9.77136882,26.9341373 9.34242586,27.043549 C8.91348289,26.9341373 7.61403802,26.559098 6.20345247,25.7202745 C3.95360456,24.3818039 2.48774905,22.5461176 1.8473384,20.2648824 C1.69525281,19.7227189 1.59209991,19.1677117 1.53914829,18.6066863 C1.5280269,18.4921718 1.51881393,18.3774757 1.51151331,18.2626471 L1.51151331,18.2614314 C1.49650009,18.0285331 1.48908667,17.795197 1.48928517,17.5618039 C1.48918261,17.1280267 1.51284884,16.6945772 1.5601749,16.263451 C1.60074059,15.8894984 1.65645794,15.5173879 1.72718631,15.1480588 C1.72958935,15.1346863 1.73319392,15.1213137 1.7349962,15.1079412 C1.27781749,14.3931176 0.943794677,13.5628039 0.868098859,12.5574314 C-0.115346008,15.4866275 -0.264334601,18.2079412 0.427741445,20.6727451 C1.17028137,23.3150392 2.9245019,25.5148235 5.50056274,27.0344314 C6.28155133,27.4951765 7.0264943,27.8276667 7.64047148,28.0616863 C7.66510266,28.0708039 7.6903346,28.0811373 7.71496578,28.0896471 C8.00526813,28.198596 8.29921656,28.2973286 8.59628137,28.3856667 L8.60469202,28.3887059 L8.60469202,30.3921569 L10.0801597,30.3921569 L10.0801597,28.3887059 L10.0885703,28.3856667 C10.182313,28.357855 10.2758343,28.3292855 10.3691255,28.2999608 L10.4592395,28.2695686 C10.6154373,28.2185098 10.7854525,28.1589412 10.9698859,28.0896471 C10.9951179,28.0811373 11.019749,28.0714118 11.044981,28.0616863 C11.7848281,27.7799239 12.5002021,27.4363185 13.1836882,27.0344314 C15.7609506,25.5148235 17.5151711,23.3144314 18.2571103,20.6727451 C18.9497871,18.2079412 18.8001977,15.4866275 17.8167529,12.5574314 L17.8167529,12.5574314 Z" id="Shape"></path>
                <path d="M17.8167529,12.5574314 C17.7416578,13.5628039 17.407635,14.3931176 16.9498555,15.1079412 C16.9522586,15.1213137 16.9558631,15.1346863 16.9576654,15.1480588 C17.0418559,15.5894211 17.1046106,16.0346941 17.1457034,16.4822745 C17.1892808,16.9578694 17.2041272,17.4357121 17.1901597,17.9131373 C17.1866169,18.0293165 17.1812094,18.1454298 17.1739392,18.2614314 L17.1739392,18.2626471 C17.151613,18.6048193 17.1123138,18.9456409 17.0561901,19.2838235 C17.0012168,19.6146186 16.9284162,19.9421266 16.8381141,20.2648824 C16.1971027,22.5461176 14.7318479,24.3818039 12.4813992,25.7202745 C11.0708137,26.559098 9.77136882,26.9341373 9.34242586,27.043549 C8.91348289,26.9341373 7.61403802,26.559098 6.20345247,25.7202745 C3.95360456,24.3818039 2.48774905,22.5461176 1.8473384,20.2648824 C1.69525281,19.7227189 1.59209991,19.1677117 1.53914829,18.6066863 C1.5280269,18.4921718 1.51881393,18.3774757 1.51151331,18.2626471 L1.51151331,18.2614314 C1.49650009,18.0285331 1.48908667,17.795197 1.48928517,17.5618039 C1.48918261,17.1280267 1.51284884,16.6945772 1.5601749,16.263451 C1.60074059,15.8894984 1.65645794,15.5173879 1.72718631,15.1480588 C1.72958935,15.1346863 1.73319392,15.1213137 1.7349962,15.1079412 C1.27781749,14.3931176 0.943794677,13.5628039 0.868098859,12.5574314 C-0.115346008,15.4866275 -0.264334601,18.2079412 0.427741445,20.6727451 C1.17028137,23.3150392 2.9245019,25.5148235 5.50056274,27.0344314 C6.28155133,27.4951765 7.0264943,27.8276667 7.64047148,28.0616863 C7.66510266,28.0708039 7.6903346,28.0811373 7.71496578,28.0896471 C8.00526813,28.198596 8.29921656,28.2973286 8.59628137,28.3856667 L8.60469202,28.3887059 L8.60469202,30.3921569 L10.0801597,30.3921569 L10.0801597,28.3887059 L10.0885703,28.3856667 C10.182313,28.357855 10.2758343,28.3292855 10.3691255,28.2999608 L10.4592395,28.2695686 C10.6154373,28.2185098 10.7854525,28.1589412 10.9698859,28.0896471 C10.9951179,28.0811373 11.019749,28.0714118 11.044981,28.0616863 C11.7848281,27.7799239 12.5002021,27.4363185 13.1836882,27.0344314 C15.7609506,25.5148235 17.5151711,23.3144314 18.2571103,20.6727451 C18.9497871,18.2079412 18.8001977,15.4866275 17.8167529,12.5574314 L17.8167529,12.5574314 Z" id="Shape" fill="url(#linearGradient-4)" fill-rule="nonzero"></path>
            </g>
        </g>
    </g>
</svg>