<svg xmlns="http://www.w3.org/2000/svg" width="50" height="50" viewBox="0 0 424029 424029" shape-rendering="geometricPrecision" text-rendering="geometricPrecision" image-rendering="optimizeQuality" fill-rule="evenodd" clip-rule="evenodd"><defs><style>.fil0{fill:none}.fil1{fill:#fff}</style></defs><g id="Layer_x0020_1"><path class="fil0" d="M1-1h424029v424029H1z"/><g id="_906963072"><path class="fil1" d="M202253 288275s-26543 16497-29919 20284c-100 851 4007 7692 7843 7842 7001-2253 27766-24540 27766-24540-1493-1492-5690-3586-5690-3586z"/><path class="fil1" d="M243882 316081s5649-2194 6911-7533c1252-5328-32643-23538-32643-23538s15154-9997 15405-8995c831 3295 1232 32233 37001 15896-3706-20604-36250-16888-36250-16888l-130-4086s31943 3595 19742-24210c-20073 631-20614 23228-20614 23228l-20483 10988-22828-9015s4938-21425-19853-26133c-11298 29499 19232 27255 19232 27255l-491 4087s-30670-7182-35689 15105c31973 15094 34577-10287 36180-14124 2835-621 42901 21646 54510 37963z"/><path class="fil1" d="M160725 270576s-22097-13132-39856 1573c2514 10988 32634 22597 39856-1573zm1422-4217s7993-26213-9265-31242c-14244 15656-1462 28938 9265 31242z"/><path class="fil1" d="M137647 251885s17208-17208 1973-32463c-13612 7702-12621 23789-1973 32463zm-2274 3536s-17288-20624-37682-11439c0 8895 20323 31762 37682 11439zm-19051-22878s-7403-26834-31332-25402c-1693 14394 8043 36410 31332 25402zm3866-2203s22407-11139 13492-29559c-15966 721-20303 17929-13492 29559zm-13182-26594s4658-30060-20754-33876c-2534 13122-4227 38113 20754 33876zm4267-511s22407-1853 23259-23208c-18631-2534-23008 2163-23259 23208z"/><path class="fil1" d="M107858 173686s13973-24991-6361-38964c-11008 12280-15726 35959 6361 38964zm4036 962s26454 5809 29840-13242c-10588-5088-22778-9035-29840 13242z"/><path class="fil1" d="M120128 146582s23719-23720 5930-38965c-16938 8464-22958 29769-5930 38965zm2975 2113s20323 12711 33034-1693c-1692-8053-17378-21495-33034 1693zm140191 121881s22096-13132 39856 1573c-2515 10988-32634 22597-39856-1573zm-1422-4217s-7994-26213 9265-31242c14253 15656 1462 28938-9265 31242z"/><path class="fil1" d="M286372 251885s-17208-17208-1973-32463c13612 7702 12620 23789 1973 32463zm2264 3536s17298-20624 37692-11439c0 8895-20324 31762-37692 11439zm19061-22878s7402-26834 31332-25402c1703 14394-8044 36410-31332 25402zm-3866-2203s-22407-11139-13503-29559c15977 721 20314 17929 13503 29559zm13181-26594s-4657-30060 20755-33876c2544 13122 4227 38113-20755 33876zm-4267-511s-22407-1853-23258-23208c18641-2534 23008 2163 23258 23208z"/><path class="fil1" d="M316171 173686s-13983-24991 6351-38964c11008 12280 15725 35959-6351 38964zm-4047 962s-26453 5809-29839-13242c10588-5088 22788-9035 29839 13242z"/><path class="fil1" d="M303881 146582s-23709-23720-5920-38965c16928 8464 22958 29769 5920 38965zm-2965 2113s-20324 12711-33035-1693c1703-8053 17389-21495 33035 1693z"/></g></g></svg>