<svg width="50" height="50" viewBox="0 0 50 50" xmlns="http://www.w3.org/2000/svg"><title>Group 2</title><g fill="none" fill-rule="evenodd"><path d="M0 0h50v50H0z"/><path d="M37.932 25.875s0 .068-.066.068c-.066.067-.066.135-.134.2l-9.25 9.25c-.268.268-.536.335-.87.335-.335 0-.603-.134-.871-.334a1.256 1.256 0 0 1 0-1.744l7.104-7.105H14.207c-.67 0-1.207-.536-1.207-1.206 0-.67.537-1.207 1.207-1.207h19.638l-7.038-7.037a1.256 1.256 0 0 1 0-1.743 1.256 1.256 0 0 1 1.743 0l9.115 9.114c.067.068.135.134.135.202l.066.067c0 .068.066.068.066.134s0 .066.068.134v.736c0 .068 0 .068-.068.135 0-.067 0 0 0 0v.001z" fill="#FFF"/></g></svg>