<svg xmlns="http://www.w3.org/2000/svg" width="50" height="50" viewBox="0 0 3315114 3315114" shape-rendering="geometricPrecision" text-rendering="geometricPrecision" image-rendering="optimizeQuality" fill-rule="evenodd" clip-rule="evenodd"><defs><style>.fil0{fill:none}.fil1,.fil2{fill:#00caa2;fill-rule:nonzero}.fil2{fill:#fff}</style></defs><g id="Layer_x0020_1"><g id="_2839040144656"><path class="fil0" d="M39 39h3315035v3315035H39z"/><path class="fil1" d="M1657557 623258c285591 0 544166 115896 731323 303054 187158 187157 302976 445732 302976 731323s-115818 544166-302976 731323l-78-78c-187158 187158-445889 303054-731245 303054-285278 0-544010-115896-731167-302976l-78-78-79-78c-187079-187158-302975-445889-302975-731167 0-285356 115896-544088 303054-731245l-79-78c187158-187158 445733-302976 731324-302976v-78z"/><path class="fil2" d="M1527330 2065544l352780-371104c4855-5168 8614-11041 11041-16758 2663-6500 4150-13469 4150-20047 0-6734-1409-13547-3837-19734l-391-626c-2506-5638-6187-11668-10963-16680l-352780-370947h78c-10728-11355-25607-17933-40799-19029-15035-1097-30775 2819-43539 12059l-1097 783-3915 3289-940 783c-9867 9397-15818 21535-16914 33830-1097 12451 2192 25293 10180 36335l783 1096 3132 3681 705 861 317698 334221-317698 334221-940 1174-3132 3759-548 705c-8066 10806-11355 23806-10259 36257 1097 12137 7048 24432 16837 33829l1018 783 3915 3367 1175 862c12686 9240 28504 13156 43461 12059 15192-1174 30227-7752 40799-19107h-79l79 78z"/></g></g></svg>