<svg xmlns="http://www.w3.org/2000/svg" width="50" height="50" viewBox="0 0 132071 132068" shape-rendering="geometricPrecision" text-rendering="geometricPrecision" image-rendering="optimizeQuality" fill-rule="evenodd" clip-rule="evenodd"><defs><style>.fil0{fill:none}.fil1{fill:#333}</style></defs><g id="Layer_x0020_1"><path class="fil0" d="M2 0h132068v132068H2z"/><path class="fil1" d="M27426 103897h16980V52802H27426v51095zm8601-75723c-5812 0-9612 3816-9612 8826 0 4904 3690 8829 9390 8829h109c5925 0 9609-3922 9609-8829-112-5010-3684-8826-9496-8826zm69629 46422v29301H88669V76561c0-6866-2452-11552-8604-11552-4692 0-7481 3157-8714 6211-446 1092-561 2609-561 4140v28537H53800s228-46300 0-51095h16990v7240c-34 60-84 113-112 169h112v-169c2255-3472 6283-8438 15308-8438 11178 0 19558 7300 19558 22992z"/></g></svg>