<svg xmlns="http://www.w3.org/2000/svg" width="50" height="50" viewBox="0 0 1530956 1530920" shape-rendering="geometricPrecision" text-rendering="geometricPrecision" image-rendering="optimizeQuality" fill-rule="evenodd" clip-rule="evenodd"><defs><style>.fil0{fill:none}.fil1{fill:#333}</style></defs><g id="Layer_x0020_1"><path class="fil0" d="M18 5h1530920v1530920H18z"/><path class="fil1" d="M1224794 480580c-33813 14972-70158 25134-108274 29654 38912-23325 68783-60212 82887-104260-36417 21590-76776 37285-119666 45747-34392-36633-83357-59525-137603-59525-104043 0-188449 84406-188449 188485 0 14755 1663 29148 4882 42927-156625-7848-295494-82888-388435-196912-16201 27810-25532 60213-25532 94749 0 65384 33307 123065 83828 156878-30848-976-59960-9438-85347-23578v2350c0 91350 64987 167475 151165 184797-15767 4304-32475 6618-49653 6618-12151 0-23940-1157-35440-3363 23976 74859 93555 129358 176045 130876-64516 50557-145740 80682-234052 80682-15189 0-30233-904-44952-2640 83358 53486 182447 84695 288876 84695 346630 0 536200-287176 536200-536272 0-8173-180-16274-542-24374 36851-26544 68783-59743 94062-97534z"/></g></svg>