<svg xmlns="http://www.w3.org/2000/svg" width="50" height="50" viewBox="0 0 81612 81610" shape-rendering="geometricPrecision" text-rendering="geometricPrecision" image-rendering="optimizeQuality" fill-rule="evenodd" clip-rule="evenodd"><defs><style>.fil0{fill:none}.fil1{fill:#4d4d4d}</style></defs><g id="Layer_x0020_1"><path class="fil0" d="M1 0h81610v81610H1z"/><path class="fil1" d="M40808 16313c-13479 0-24462 10983-24483 24481-10 6665 2620 13125 7214 17727 4364 4370 10161 6778 16324 6778 330 0 661-6 993-22 13703-561 24435-11314 24435-24481 0-13500-10983-24483-24483-24483zm-48 46607c-301 11-600 17-897 17-4881 0-9504-1683-13215-4773 0-23 6-46 6-71 0-6204 3638-11484 9086-13279 1370 702 2918 1104 4561 1104 1642 0 3190-402 4561-1104 5577 1831 9448 7196 9477 13211-3728 2882-8421 4683-13579 4895zm-459-19361c-4239 0-7688-3449-7688-7690 0-4239 3449-7688 7688-7688s7688 3450 7688 7688c0 4239-3449 7690-7688 7690zm16263 12509c-704-5650-4295-10572-9392-12883 1950-1835 3178-4432 3178-7316 0-5541-4509-10048-10049-10048-5541 0-10050 4507-10050 10048 0 2886 1230 5484 3183 7318-4953 2275-8344 7100-9009 12835-3666-4091-5746-9573-5739-15224 20-12199 9944-22123 22124-22123 12195 0 22119 9924 22119 22121 0 5919-2411 11297-6365 15272z"/></g></svg>