<svg width="30" height="30" viewBox="0 0 30 30" xmlns="http://www.w3.org/2000/svg"><title>Group 15</title><g fill="none" fill-rule="evenodd"><path d="M-10-10h50v50h-50z"/><g fill-rule="nonzero"><path d="M14.973 29.66C6.98 29.66.48 23.16.48 15.17S6.98.68 14.973.68c3.028 0 5.93.924 8.39 2.672a1.16 1.16 0 0 1-1.344 1.89 12.095 12.095 0 0 0-7.046-2.244c-6.713 0-12.174 5.46-12.174 12.17C2.8 21.88 8.26 27.34 14.973 27.34c6.712 0 12.173-5.46 12.173-12.171 0-1.42-.243-2.811-.721-4.136a1.158 1.158 0 0 1 .697-1.484 1.158 1.158 0 0 1 1.485.697c.57 1.578.859 3.234.859 4.924 0 7.99-6.502 14.49-14.493 14.49z" fill="#FFF"/><path d="M27.873 5.255c-.28.435-.574.886-.855 1.32-.73 1.072-1.445 2.16-2.16 3.248-.87 1.304-1.724 2.594-2.594 3.899a455.056 455.056 0 0 0-2.316 3.495c-.434.637-.855 1.29-1.29 1.912-.543.76-1.708 1.32-2.61.87-.357-.17-.792-.513-1.025-.839a.86.86 0 0 0-.11-.14c-.093-.14-.185-.264-.279-.403l-.419-.607c-.17-.248-.342-.481-.528-.73-.186-.28-.389-.56-.575-.823a43.129 43.129 0 0 0-.606-.855c-.186-.264-.388-.544-.575-.823-.17-.249-.342-.497-.528-.746-.124-.186-.264-.373-.404-.574l-.326-.467a.328.328 0 0 1-.047-.078 1.416 1.416 0 0 1-.17-.512c-.031-.28.078-.575.264-.777.17-.17.404-.295.637-.358 0 0 .31-.109.823.218l4.397 3.682c.31-.342.607-.698.917-1.056.746-.855 1.508-1.724 2.253-2.579.932-1.056 1.849-2.128 2.765-3.185.84-.947 1.678-1.896 2.502-2.859.481-.574.963-1.15 1.522-1.677.435-.404.964-.203 1.337.17 0 0 .544.545 0 1.274z" fill="#00CAA2"/></g></g></svg>