<svg width="50" height="50" viewBox="0 0 50 50" xmlns="http://www.w3.org/2000/svg"><title>Health-w</title><g fill="none" fill-rule="evenodd"><path d="M0 0h50v50H0z"/><path d="M12 22.918c0 11.903 12.584 17.904 12.71 17.964.34.157.24.157.582 0C25.441 40.808 38 34.82 38 22.918v-9.054c.001-.066-.032-.175-.178-.197L25 11l-12.703 2.566c-.168.047-.297.16-.297.297v9.055zm13.212 7.27a.588.588 0 0 1-.252.068.607.607 0 0 1-.252-.038.57.57 0 0 1-.3-.265l-.03-.066-.024-.075-1.903-8.01-.864 4.28a.593.593 0 0 1-.581.475h-2.24a.595.595 0 0 1-.594-.591.59.59 0 0 1 .594-.59h1.764l1.295-6.443a.573.573 0 0 1 .278-.391.603.603 0 0 1 .59-.012.577.577 0 0 1 .288.385l2.086 8.779 1.832-4.668a.583.583 0 0 1 .52-.373.592.592 0 0 1 .558.319l1.235 2.402 1.88.002a.592.592 0 0 1 .594.59.594.594 0 0 1-.594.59H28.85a.596.596 0 0 1-.526-.32l-.8-1.557-2.045 5.203a.587.587 0 0 1-.267.306zm11.054-6.831c0 9.327-9.487 14.662-11.213 15.563-1.73-.9-11.26-6.516-11.26-15.565v-8.433l11.215-2.215 11.258 2.553v8.097z" fill="#FFF"/></g></svg>