<svg width="50" height="50" viewBox="0 0 50 50" xmlns="http://www.w3.org/2000/svg"><title>Home-w</title><g fill="none" fill-rule="evenodd"><path d="M0 0h50v50H0z"/><path d="M39.73 23.563c-.006-.007-.015-.013-.022-.02a.684.684 0 0 0-.094-.084L25.572 11.234c-.358-.312-.804-.312-1.163 0l-14.16 12.329c-.559.487-.097 1.416.584 1.416h2.857v13.19c0 .453.375.831.825.831h8.048c.45 0 .823-.378.823-.83v-7.288h3.721v7.287c0 .453.373.831.822.831h8.05a.835.835 0 0 0 .824-.83V24.98h2.345c.35 0 .583-.183.701-.425.207-.292.232-.687-.12-.992h.002zm-2.792-.244h-.958a.834.834 0 0 0-.823.83v13.19h-6.403V30.05a.835.835 0 0 0-.823-.83h-5.365a.835.835 0 0 0-.824.83v7.288h-6.404v-13.19a.834.834 0 0 0-.823-.83h-1.472l11.948-10.404 11.948 10.404z" fill="#FFF"/></g></svg>