<svg xmlns="http://www.w3.org/2000/svg" width="50" height="50" viewBox="0 0 5000000 5000000" shape-rendering="geometricPrecision" text-rendering="geometricPrecision" image-rendering="optimizeQuality" fill-rule="evenodd" clip-rule="evenodd"><defs><style>.fil0{fill:none}.fil1{fill:#fff;fill-rule:nonzero}</style></defs><g id="Layer_x0020_1"><g id="_1173688288"><path id="Rectangle-6" class="fil0" d="M0-13h5000000v5000000H0z"/><path class="fil1" d="M127974 2411937c-22639 0-43048-9713-57599-25247l-227-189c-13682-14702-22224-34734-22224-56579 0-21657 8542-41764 22262-56504l-38-38c14627-15723 35149-25474 57826-25474h1740053c61152 0 115275 25172 166072 63269 46072 34507 88025 78576 130544 123250 38551 40555 77934 81827 116334 111005 33864 25701 67993 43086 101404 43086v-189c33260 0 65877-16441 97890-40932 36888-28195 73927-67842 110551-107074l1247-1398 76-76 37 38c89273-95735 177827-189958 307237-190639h189l1972418-151v-189c22714 0 43199 9751 57826 25474l-38 38c13720 14740 22262 34847 22262 56504 0 21845-8542 41877-22224 56579l-227 189c-14513 15496-34922 25247-57599 25247H2899722v-189c-28573 227-57978 15572-87647 38627h-189c-34318 26608-69808 64667-105411 102803l-1247 1398-227 227-38-38c-91577 98117-184818 197215-322582 197140-70714 75-132283-27742-188635-69014-51704-37871-98117-86551-143546-134286-66029-69392-130091-136668-182173-136668H127974z"/></g></g></svg>