<svg width="50" height="50" viewBox="0 0 50 50" xmlns="http://www.w3.org/2000/svg"><title>Life</title><g fill="none" fill-rule="evenodd"><path d="M0 0h50v50H0z"/><path d="M25.805 37.466c-.2.695-1.308.695-1.711.1-.101-.1-.101-.199-.101-.199l-4.731-19.954-2.315 11.416c-.102.397-.504.695-.906.695h-5.135c-.605 0-.906-.497-.906-.893 0-.596.402-.893.906-.893h4.428l3.021-14.992c.2-.893 1.712-1.091 1.913 0l4.933 21.146 4.631-11.813c.2-.696 1.31-.794 1.812-.1l2.819 5.759h4.63c.505 0 .907.396.907.892 0 .497-.502.893-.906.893l-5.236.001c-.401 0-.604-.199-.805-.497l-2.216-4.368-5.033 12.807h.001z" fill="#2D2D2D"/></g></svg>