<svg width="50" height="50" viewBox="0 0 50 50" xmlns="http://www.w3.org/2000/svg"><title>Travel-w</title><g fill="none" fill-rule="evenodd"><path d="M0 0h50v50H0z"/><g fill="#FFF"><path d="M14.069 14.74h5.208v-3.27c0-.169.04-.295.125-.423a.88.88 0 0 1 .784-.468h9.343c.497 0 .91.424.91.935v3.27h5.374a4.245 4.245 0 0 1 1.487.381c1.365.638 2.316 2.038 2.316 3.695v15.416c0 2.038-1.448 3.694-3.347 3.992-.084.467-.496.848-.993.848h-2.15c-.412 0-.744-.254-.91-.594-.04-.128-.166-.17-.289-.17H17.541a.35.35 0 0 0-.29.17c-.164.34-.496.594-.908.594h-2.15c-.496 0-.91-.381-.992-.848-1.819-.384-3.182-1.997-3.182-3.992V18.775c.083-2.251 1.86-4.035 4.05-4.035zM11.756 34.3c0 1.228.991 2.246 2.188 2.246h21.591c1.198 0 2.187-1.019 2.187-2.246V18.907c0-1.23-.989-2.248-2.187-2.248h-1.073a.509.509 0 0 0-.497.507v1.741c0 .128-.04.296-.081.424a.87.87 0 0 1-.702.55c-.535.045-.993-.38-.993-.891v-1.824a.507.507 0 0 0-.494-.507H17.744a.508.508 0 0 0-.495.507v1.741c0 .467-.332.933-.785.975a.912.912 0 0 1-.991-.892v-1.78a.51.51 0 0 0-.498-.51h-1.071c-1.197 0-2.189 1.018-2.189 2.247V34.3h.041zM28.64 12.81a.572.572 0 0 0-.579-.594h-6.489a.573.573 0 0 0-.58.593v1.389c0 .34.248.595.58.595h6.53c.29 0 .537-.254.537-.595V12.81z"/><path d="M32.71 32.909a.811.811 0 0 0 .537-.17c.248-.213.373-.51.373-.848l-.703-5.99a.891.891 0 0 0-.539-.722.819.819 0 0 0-.868.128l-4.712 3.61a1.08 1.08 0 0 0-.373.85.893.893 0 0 0 .538.723l5.374 2.376c.167 0 .29.043.373.043zm-1.152-5.831l.5 3.939-3.688-1.645 3.188-2.294zm-2.156-3.895c-.371 1.316-1.736 2.124-3.554 2.124a5.91 5.91 0 0 1-1.902-.298c-1.157-.34-2.15-.933-2.853-1.7-.785-.847-1.117-1.91-.87-2.801.375-1.316 1.739-2.123 3.558-2.123.619 0 1.28.085 1.9.297 1.158.34 2.15.934 2.853 1.7.785.848 1.117 1.867.868 2.801zm-1.914-1.572c-.502-.561-1.323-1.028-2.235-1.31-.545-.14-1.047-.233-1.55-.233-1.048 0-1.913.375-2.05.841-.092.328.092.75.501 1.171.501.563 1.322 1.031 2.234 1.313.547.14 1.049.232 1.55.232 1.048 0 1.915-.374 2.052-.841.044-.33-.138-.75-.502-1.173zm-6.436 4.886l1.694 2.207c.415.51.58 1.19.538 1.869a2.652 2.652 0 0 1-.91 1.698l-2.15 1.742c-.454.34-.992.55-1.528.55-.746 0-1.447-.339-1.944-.933l-1.694-2.207c-.413-.51-.579-1.19-.539-1.869.084-.68.415-1.274.91-1.699l2.151-1.741c.454-.34.992-.552 1.528-.552.746 0 1.448.34 1.944.935zm-1.927.682a.63.63 0 0 0-.446.183L16.36 29.24c-.134.139-.267.32-.267.504s.044.414.177.55l1.829 2.383a.713.713 0 0 0 .579.273.63.63 0 0 0 .446-.184l2.318-1.877c.135-.138.27-.32.27-.504 0-.183-.046-.412-.18-.549l-1.83-2.382a.71.71 0 0 0-.578-.274z"/></g></g></svg>