<svg width="50" height="50" viewBox="0 0 50 50" xmlns="http://www.w3.org/2000/svg"><title>Motor-w</title><g fill="none" fill-rule="evenodd"><path d="M0 0h50v50H0z"/><path d="M40.14 26.068l-.14-.143.2.003-.002.102h-.043l-.016.038zm-.142-.04v-.2h.2v.2a4.147 4.147 0 0 1-1.156 2.877l-.12.121a4.424 4.424 0 0 1-3.089 1.232 4.002 4.002 0 0 1-1.17 2.362 3.84 3.84 0 0 1-2.673 1.08 3.842 3.842 0 0 1-2.673-1.08 3.623 3.623 0 0 1-1.11-2.362h-7.039a3.622 3.622 0 0 1-1.11 2.362 3.844 3.844 0 0 1-2.675 1.08 3.841 3.841 0 0 1-2.673-1.08 3.618 3.618 0 0 1-1.115-2.445 4.552 4.552 0 0 1-2.488-1.246 4.444 4.444 0 0 1-1.306-2.657c-.001-.577 0-.897.003-1.465l.001-.167c0-.784.319-1.512.875-2.05a3.042 3.042 0 0 1 2.115-.852h2.173v-3.15c0-.614.254-1.197.695-1.625a2.377 2.377 0 0 1 1.664-.663h10.42c.96 0 1.899.26 2.728.748a5.572 5.572 0 0 1 2.013 2.042l1.48 2.706h1.924l.11.002a4.389 4.389 0 0 1 2.973 1.232 4.026 4.026 0 0 1 1.225 2.895l-.045.105-.157-.002zm-8.961-6.217a3.607 3.607 0 0 0-1.379-1.408 3.939 3.939 0 0 0-1.969-.522l-10.42-.001a.764.764 0 0 0-.53.21.683.683 0 0 0-.209.5v3.206h15.582l-1.075-1.985zM19.615 30.023c0-.556-.233-1.083-.638-1.476a2.207 2.207 0 0 0-3.07 0c-.406.393-.638.92-.638 1.476 0 .557.232 1.084.638 1.477a2.205 2.205 0 0 0 3.07 0c.405-.393.638-.92.638-1.477zM30.512 31.5a2.207 2.207 0 0 0 3.07 0 2.05 2.05 0 0 0 .638-1.476c0-.556-.232-1.083-.638-1.476a2.206 2.206 0 0 0-3.069 0c-.406.393-.639.92-.639 1.476 0 .557.233 1.084.638 1.476zm5.38-2.876c.75 0 1.443-.28 1.952-.773.507-.49.796-1.158.796-1.877a2.6 2.6 0 0 0-.796-1.88 2.79 2.79 0 0 0-1.952-.774H12.74c-.374 0-.716.14-.97.386a1.303 1.303 0 0 0-.401.935v1.055c0 .748.276 1.443.769 1.976a3.036 3.036 0 0 0 1.77.93 3.802 3.802 0 0 1 1.337-1.633 3.861 3.861 0 0 1 2.198-.677c.812 0 1.58.241 2.22.682.602.415 1.065.99 1.328 1.65h7.46a3.908 3.908 0 0 1 1.36-1.662 3.813 3.813 0 0 1 2.18-.67 3.9 3.9 0 0 1 2.22.681 3.68 3.68 0 0 1 1.33 1.65h.352z" fill="#FFF" fill-rule="nonzero"/></g></svg>